<?xml version="1.0" standalone="no"?>
<!DOCTYPE svg PUBLIC "-//W3C//DTD SVG 1.1//EN" "http://www.w3.org/Graphics/SVG/1.1/DTD/svg11.dtd" >
<svg>
<metadata>
Created by FontForge 20120731 at Tue Apr  2 17:49:33 2013
 By Jenkins
TrueType font: Copyright (c) 1991, 1994 ParaGraph. All rights reserved. Technical realization by TeamAXis Corp. Hinted with AXisType ToolKit: Copyright (c) 1992, 1994 by Dmitry Komissarov.
</metadata>
<defs>
<font id="BodoniCondCTT" horiz-adv-x="385" >
  <font-face 
    font-family="BodoniCondCTT"
    font-weight="400"
    font-stretch="condensed"
    units-per-em="1000"
    panose-1="0 0 0 0 0 0 0 0 0 0"
    ascent="800"
    descent="-200"
    x-height="437"
    cap-height="655"
    bbox="-70 -229 1007 831"
    underline-thickness="56"
    underline-position="-201"
    unicode-range="U+0020-2219"
  />
<missing-glyph horiz-adv-x="831" 
d="M51 0v831h729v-831h-729zM729 51v729h-627v-729h627z" />
    <glyph glyph-name=".notdef" horiz-adv-x="831" 
d="M51 0v831h729v-831h-729zM729 51v729h-627v-729h627z" />
    <glyph glyph-name=".null" horiz-adv-x="0" 
 />
    <glyph glyph-name="nonmarkingreturn" horiz-adv-x="351" 
 />
    <glyph glyph-name="space" unicode=" " horiz-adv-x="351" 
 />
    <glyph glyph-name="exclam" unicode="!" horiz-adv-x="298" 
d="M214 596q0 -11 -1 -17.5t-7 -29.5q-15 -62 -29 -123q-16 -92 -16 -258h-24q0 169 -15 259q-21 83 -30 122q-3 12 -4 17q-4 17 -4 30q0 42 24 59q16 11 41 11q35 0 50 -16.5t15 -53.5zM205 45q0 -20 -13 -36q-16 -20 -43 -20q-26 0 -41 18t-15 38q0 23 16.5 39.5
t39.5 16.5t39.5 -16.5t16.5 -39.5z" />
    <glyph glyph-name="quotedbl" unicode="&#x22;" horiz-adv-x="395" 
d="M322 666l-29 -221h-38l-29 221h96zM145 666l-28 -221h-39l-28 221h95z" />
    <glyph glyph-name="numbersign" unicode="#" horiz-adv-x="739" 
d="M683 489l-14 -90h-140l-29 -190h140l-14 -90h-140l-27 -178h-70l27 178h-150l-27 -178h-70l26 178h-139l13 90h140l29 190h-140l14 90h140l27 177h70l-27 -177h151l27 177h70l-27 -177h140zM458 399h-149l-29 -190h149z" />
    <glyph glyph-name="dollar" unicode="$" horiz-adv-x="416" 
d="M395 196q0 -66 -31 -123q-44 -81 -132 -81v-92h-30v92q-33 5 -45.5 17.5t-48.5 12.5q-18 0 -25 -5.5t-11 -16.5h-30v233h21q11 -73 46 -135q41 -73 93 -82v256l-47 26q-47 26 -72.5 74.5t-25.5 112.5q0 69 32 118q40 61 113 61v73h30v-76q24 -4 32 -11t36 -13h11q6 1 9 4
q7 6 13 14h31v-186h-22q-13 57 -34 96q-32 60 -76 73v-214l53 -29q56 -31 85 -89q25 -51 25 -110zM202 437v204q-47 0 -69 -35q-14 -22 -14 -45q0 -49 21 -77q12 -16 49 -39zM329 127q0 53 -30 86q-13 14 -55 39l-12 7v-245q54 0 79 41q18 30 18 72z" />
    <glyph glyph-name="percent" unicode="%" horiz-adv-x="802" 
d="M380 519q0 -80 -39 -134.5t-96 -54.5q-61 0 -99 61q-34 55 -34 127q0 71 34 127q38 62 99 62q57 0 96 -54t39 -134zM603 766l-392 -944l-28 18l393 943zM676 92q0 -80 -39 -134.5t-96 -54.5q-61 0 -99 61q-34 55 -34 127q0 71 34 127q38 62 99 62q57 0 96 -54t39 -134z
M289 427v183q0 42 -15 62q-11 15 -29 15q-17 0 -27 -14q-15 -20 -15 -63v-183q0 -39 10.5 -58t31.5 -19q17 0 28 14q16 20 16 63zM585 0v183q0 42 -15 62q-11 15 -29 15q-17 0 -27 -14q-15 -20 -15 -63v-183q0 -39 10.5 -58t31.5 -19q17 0 28 14q16 20 16 63z" />
    <glyph glyph-name="ampersand" unicode="&#x26;" horiz-adv-x="550" 
d="M550 398q0 -68 -38.5 -117.5t-91.5 -49.5h-11q1 -8 1.5 -15.5t0.5 -17.5v-16q-2 -12 -2 -17q-8 -101 -63 -144q-37 -29 -84 -29q-92 0 -150 40q-70 48 -70 143q0 163 177 194v4q-68 20 -98 48q-38 36 -38 100q0 50 28 86q44 56 140 56q68 0 105 -36q33 -32 33 -80
q0 -35 -15 -53.5t-36 -18.5t-37 17t-16 43q0 14 6 25q3 5 23 25q9 9 10.5 12t1.5 9q0 15 -20 25t-47 10q-17 0 -30 -6q-40 -18 -40 -84v-67q0 -46 12 -69q19 -36 72 -36h25v-22h-47q-31 0 -51 -17q-36 -30 -36 -108v-38q0 -66 18 -112q26 -68 87 -68q43 0 74 30
q41 40 41 118v34v13q0 6 -2 22h-40q-55 0 -76 -10t-21 -29q0 -3 1 -6.5t3 -7.5l10 2q12 6 17 6q17 0 31 -15t14 -43q0 -21 -13 -35t-32 -14q-21 0 -34 16q-19 23 -19 74q0 66 35 114q39 53 101 53l69 -1q42 0 59 4q38 9 38 35q0 4 -1 7.5t-3 7.5l-9 -3q-11 -7 -18 -7
q-20 0 -33 12q-16 15 -16 43q0 25 14 42t35 17q22 0 36 -17q20 -24 20 -78z" />
    <glyph glyph-name="quotesingle" unicode="'" horiz-adv-x="218" 
d="M145 666l-28 -221h-39l-28 221h95z" />
    <glyph glyph-name="parenleft" unicode="(" horiz-adv-x="469" 
d="M329 665q-69 -116 -90 -228q-14 -74 -14 -212q0 -123 22 -228q27 -127 81 -195l-19 -12q-83 97 -133 211.5t-50 223.5q0 118 48 230q42 97 135 218z" />
    <glyph glyph-name="parenright" unicode=")" horiz-adv-x="469" 
d="M329 225q0 -108 -49.5 -222.5t-133.5 -212.5l-19 12q53 66 80 194q23 108 23 229q0 130 -14 209q-23 130 -90 229l20 10q93 -120 135 -218q48 -111 48 -230z" />
    <glyph glyph-name="asterisk" unicode="*" horiz-adv-x="484" 
d="M414 397q0 -18 -12.5 -28.5t-32.5 -10.5q-18 0 -50 35q-26 28 -53 51l-17 -10q4 -22 8 -43.5t13 -44.5q3 -8 5 -14t2 -10q0 -14 -9 -27q-12 -17 -33 -17q-19 0 -30.5 13.5t-11.5 30.5q0 6 3 13t4 11q6 16 12 44.5t9 43.5l-17 10q-10 -9 -63 -63q-22 -23 -40 -23
q-19 0 -32 10t-13 29q0 34 46 49q43 11 87 23v19q-64 15 -89 23q-44 14 -44 49q0 18 12.5 28.5t32.5 10.5q18 0 50 -35q26 -28 53 -51l17 10q-4 22 -8 43.5t-13 44.5q-3 8 -5 14t-2 10q0 14 12 29t30 15q16 0 29 -13t13 -31q0 -6 -3 -13t-4 -11q-6 -16 -12 -44.5t-9 -43.5
l17 -10q10 9 63 63q22 23 40 23q19 0 32 -10t13 -29q0 -34 -43 -48l-90 -24v-19q60 -14 86 -22q47 -15 47 -50z" />
    <glyph glyph-name="plus" unicode="+" horiz-adv-x="698" 
d="M649 293h-276v-276h-48v276h-276v47h276v276h48v-276h276v-47z" />
    <glyph glyph-name="comma" unicode="," horiz-adv-x="285" 
d="M201 5q0 -38 -15 -70q-22 -47 -74 -87l-12 17q32 21 51.5 56t19.5 63q0 6 -3.5 11.5t-7.5 5.5q-5 0 -15 -6t-25 -6q-21 0 -35.5 14.5t-14.5 39.5q0 26 18.5 40.5t46.5 14.5q25 0 45.5 -24t20.5 -69z" />
    <glyph glyph-name="hyphen" unicode="-" horiz-adv-x="336" 
d="M266 210h-210v45h210v-45z" />
    <glyph glyph-name="period" unicode="." horiz-adv-x="238" 
d="M168 45q0 -20 -13 -36q-16 -20 -43 -20q-26 0 -41 18t-15 38q0 23 16.5 39.5t39.5 16.5t39.5 -16.5t16.5 -39.5z" />
    <glyph glyph-name="slash" unicode="/" horiz-adv-x="740" 
d="M642 768l-493 -959l-51 25l492 960z" />
    <glyph glyph-name="zero" unicode="0" horiz-adv-x="401" 
d="M380 329q0 -173 -54 -262q-46 -75 -118 -75q-75 0 -120.5 92.5t-45.5 247.5q0 145 43.5 238t122.5 93q78 0 125 -86.5t47 -247.5zM258 148v371q0 62 -5 82q-10 40 -45 40q-30 0 -39 -46q-5 -24 -5 -72v-375q0 -66 4 -87q9 -47 40 -47q28 0 39 24.5t11 109.5z" />
    <glyph glyph-name="one" unicode="1" horiz-adv-x="406" 
d="M332 0h-225v22h59v588q0 15 -15 17l-19 1h-31v25h50q57 0 123 16v-647h58v-22z" />
    <glyph glyph-name="two" unicode="2" horiz-adv-x="429" 
d="M391 210l-6 -210h-329v63l116 162q51 72 71 121q28 68 28 151q0 74 -24 112q-20 32 -53 32q-25 0 -43.5 -18.5t-18.5 -38.5q0 -11 10 -23q3 -4 18.5 -18.5t22.5 -26.5q12 -21 12 -46q0 -28 -15 -49q-19 -27 -51 -27q-29 0 -49.5 27t-20.5 74q0 59 36 107q46 61 128 61
q79 0 124 -57q39 -49 39 -119q0 -86 -75 -171q-52 -53 -74 -76l-125 -131h211q22 0 33.5 20.5t18.5 80.5h16z" />
    <glyph glyph-name="three" unicode="3" horiz-adv-x="408" 
d="M373 165q0 -66 -44 -116q-50 -57 -130 -57q-65 0 -108 37q-46 40 -46 106q0 44 18.5 69.5t48.5 25.5q23 0 42.5 -19.5t19.5 -56.5q0 -29 -19 -51q-6 -7 -26 -26q-12 -11 -12 -19q0 -16 19.5 -30t50.5 -14q35 0 51 34q13 29 13 80v119q0 52 -12.5 77t-31.5 25
q-10 0 -31.5 -4.5t-25.5 -4.5q-26 0 -26 25q0 12 7.5 17.5t18.5 5.5l15 -3q16 -4 24 -4q24 0 36.5 19.5t12.5 78.5v68q0 59 -17 80q-12 14 -36 14q-23 0 -34 -10t-11 -21q0 -9 11 -23q15 -19 21 -32.5t6 -28.5q0 -29 -15 -47.5t-44 -18.5q-26 0 -41.5 24.5t-15.5 63.5
q0 51 38 83t97 32q75 0 117 -48q37 -42 37 -102q0 -47 -20 -80q-29 -48 -95 -63v-6q84 -19 117 -94q20 -46 20 -105z" />
    <glyph glyph-name="four" unicode="4" horiz-adv-x="424" 
d="M389 0h-230v22h64v146h-170v93l187 402h91v-402h56v-93h-56v-146h58v-22zM223 261v320l-147 -320h147z" />
    <glyph glyph-name="five" unicode="5" horiz-adv-x="444" 
d="M398 202q0 -75 -39 -133q-52 -77 -152 -77q-67 0 -108 45q-37 40 -37 96q0 39 19 69t53 30q28 0 46.5 -21.5t18.5 -52.5q0 -19 -5.5 -36t-17.5 -29q-16 -12 -23 -18q-14 -12 -14 -23q0 -14 11 -24q16 -14 47 -14q32 0 49 19q30 34 30 125v77q0 74 -11 109q-16 50 -58 50
q-21 0 -43.5 -16t-36.5 -44l-25 9l8 311q32 -18 64 -24t66 -6q50 0 76.5 10t45.5 29h17q-35 -88 -80 -122q-36 -27 -94 -27q-13 0 -38.5 2.5t-37.5 3.5l-4 -154q15 28 47 45.5t69 17.5q66 0 109 -56q48 -62 48 -171z" />
    <glyph glyph-name="six" unicode="6" horiz-adv-x="412" 
d="M388 220q0 -90 -32 -150q-42 -78 -126 -78q-86 0 -133 96q-41 84 -41 216q0 138 34 232q46 127 143 127q60 0 101 -30t41 -74q0 -36 -18 -59t-44 -23t-43.5 21.5t-17.5 55.5q0 15 9 33q3 7 16 25q9 13 9 18t-18 8t-30 3q-45 0 -54 -43.5t-9 -215.5q14 23 32 30.5t39 7.5
q69 0 107 -60q35 -55 35 -140zM266 100v193q0 44 -7 66q-10 32 -38 32t-39 -34q-7 -22 -7 -63v-17v-147q0 -62 6 -82q10 -34 45 -34q26 0 35 31q5 18 5 55z" />
    <glyph glyph-name="seven" unicode="7" horiz-adv-x="413" 
d="M371 643q0 -48 -38 -169q-27 -85 -36 -126q-23 -102 -34 -179.5t-11 -168.5h-136q0 91 31 172q17 44 57 111q59 102 71 124q38 72 53 138h-196q-24 0 -37 -48q-8 -28 -13 -78h-19l16 236h284q8 0 8 -12z" />
    <glyph glyph-name="eight" unicode="8" horiz-adv-x="417" 
d="M390 183q0 -103 -62 -153q-47 -38 -114 -38q-63 0 -109 40q-57 50 -57 140q0 45 20 82q25 46 84 87l-36 32q-29 26 -42.5 60.5t-13.5 75.5q0 77 45.5 115.5t123.5 38.5q60 0 99 -36t39 -100q0 -48 -22 -81q-16 -24 -60 -59l39 -42q29 -32 43 -60q23 -46 23 -102zM302 525
q0 57 -20.5 86.5t-58.5 29.5q-37 0 -55.5 -29.5t-18.5 -66.5q0 -15 8 -27q4 -6 14 -16l88 -89q23 24 33 53.5t10 58.5zM310 124q0 26 -5 43q-10 34 -38 61l-89 86q-35 -39 -48.5 -77.5t-13.5 -73.5q0 -71 31 -112q28 -37 69 -37q36 0 60 20q34 29 34 90z" />
    <glyph glyph-name="nine" unicode="9" horiz-adv-x="409" 
d="M380 351q0 -138 -34 -232q-46 -127 -143 -127q-60 0 -101 30t-41 74q0 36 18 59t44 23t43.5 -21.5t17.5 -55.5q0 -15 -9 -33q-3 -7 -16 -25q-9 -13 -9 -18t18 -8t30 -3q45 0 54 43.5t9 215.5q-14 -23 -36 -32q-14 -6 -35 -6q-69 0 -105.5 57.5t-36.5 142.5q0 90 32 150
q42 78 126 78q86 0 133 -96q41 -84 41 -216zM261 378v147q0 62 -6 82q-10 34 -45 34q-26 0 -35 -31q-5 -18 -5 -55v-193q0 -44 8.5 -71t36.5 -27t39 34q7 22 7 63v17z" />
    <glyph glyph-name="colon" unicode=":" horiz-adv-x="322" 
d="M210 381q0 -20 -13 -36q-16 -20 -43 -20q-24 0 -40 16t-16 40q0 26 18 41t38 15q23 0 39.5 -16.5t16.5 -39.5zM210 45q0 -26 -18 -41t-38 -15q-23 0 -39.5 16.5t-16.5 39.5t16.5 39.5t39.5 16.5q20 0 38 -14.5t18 -41.5z" />
    <glyph glyph-name="semicolon" unicode=";" horiz-adv-x="369" 
d="M237 381q0 -20 -13 -36q-16 -20 -43 -20q-26 0 -41 18t-15 38q0 23 16.5 39.5t39.5 16.5t39.5 -16.5t16.5 -39.5zM243 5q0 -38 -15 -70q-22 -47 -74 -87l-12 17q32 21 51.5 56t19.5 63q0 6 -3.5 11.5t-7.5 5.5q-5 0 -15 -6t-25 -6q-21 0 -35.5 14.5t-14.5 39.5
q0 26 18.5 40.5t46.5 14.5t47 -26t19 -67z" />
    <glyph glyph-name="less" unicode="&#x3c;" horiz-adv-x="532" 
d="M504 117l-29 -54l-461 266l461 266l29 -54l-367 -212z" />
    <glyph glyph-name="equal" unicode="=" horiz-adv-x="698" 
d="M649 362h-600v48h600v-48zM649 223h-600v47h600v-47z" />
    <glyph glyph-name="greater" unicode="&#x3e;" horiz-adv-x="532" 
d="M518 329l-461 -266l-29 54l367 212l-367 212l29 54z" />
    <glyph glyph-name="question" unicode="?" horiz-adv-x="497" 
d="M399 494q0 -43 -22 -83q-5 -8 -86 -106q-26 -33 -36.5 -60t-10.5 -61v-16h-25v53q0 16 7 45.5t28 87.5q11 29 16.5 67t5.5 86q0 69 -23 103q-19 28 -48 28q-27 0 -47 -21t-20 -44q0 -29 15 -29l13 2q33 0 49 -21t16 -54q0 -39 -22 -59q-18 -16 -45 -16t-45 22
q-21 26 -21 78q0 65 26 110q37 63 114 63q88 0 130 -65q31 -48 31 -110zM289 45q0 -20 -13 -36q-16 -20 -43 -20q-26 0 -41 18t-15 38q0 23 16.5 39.5t39.5 16.5t39.5 -16.5t16.5 -39.5z" />
    <glyph glyph-name="at" unicode="@" horiz-adv-x="713" 
d="M685 375q0 -86 -45 -152q-51 -74 -133 -74q-31 0 -52.5 12t-35.5 35q-25 -20 -49.5 -30t-55.5 -10q-49 0 -82 34q-37 39 -37 107q0 85 57.5 145.5t140.5 60.5q25 0 41 -7q25 -11 48 -41l11 35h62l-62 -205q-5 -17 -8 -28q-6 -23 -6 -34q0 -25 10.5 -36.5t25.5 -11.5
q45 0 89 48q55 60 55 152q0 105 -75 181q-83 84 -221 84q-128 0 -213.5 -93t-85.5 -218q0 -122 81 -214q88 -100 220 -100q50 0 89 10q63 16 112 58l16 -20q-57 -42 -107 -58t-108 -16q-152 0 -249 108q-90 100 -90 233q0 129 86 227q96 109 247 109q138 0 229 -78
q95 -82 95 -213zM464 408q-5 33 -24.5 52t-47.5 19q-51 0 -88 -60t-37 -128q0 -53 10 -76q14 -32 53 -32q21 0 38 8q24 11 45 38z" />
    <glyph glyph-name="A" unicode="A" horiz-adv-x="399" 
d="M434 0h-212v22h57l-45 169h-146l-11 -43l-9 -50q-2 -16 -2 -25q0 -5 2 -15q6 -20 19.5 -26.5t43.5 -9.5v-22h-159v22q35 0 53 34q8 14 24 78l135 529h46l162 -641h42v-22zM231 213l-69 272l-70 -272h139z" />
    <glyph glyph-name="B" unicode="B" horiz-adv-x="480" 
d="M462 186q0 -86 -57 -136t-150 -50h-227v22h58v611h-58v22h223q106 0 155 -40q42 -35 42 -98t-37.5 -99t-110.5 -53l1 -5q97 -27 135 -82q26 -38 26 -92zM328 474v67q0 25 -3 37q-14 55 -76 55h-55v-256h50q38 0 61 24t23 73zM340 149v69q0 57 -13 87q-22 50 -79 50h-54
v-333h45q64 0 86 39q15 27 15 88z" />
    <glyph glyph-name="C" unicode="C" horiz-adv-x="426" 
d="M419 232l-6 -232h-25q-7 18 -14.5 21.5t-15.5 3.5q-9 0 -23 -7t-23.5 -11.5t-24.5 -9.5t-32 -5q-104 0 -170 111q-60 100 -60 231q0 122 61 221q66 108 163 108q23 0 50 -8q8 -2 42 -16q12 -4 17 -4q7 0 14 4.5t10 15.5h26v-211h-20q-13 92 -50.5 144.5t-86.5 52.5
q-55 0 -79.5 -54.5t-24.5 -180.5l-1 -137q0 -138 34 -203q27 -52 70 -52q46 0 85 48q48 59 59 170h25z" />
    <glyph glyph-name="D" unicode="D" horiz-adv-x="521" 
d="M500 323q0 -137 -54 -225q-60 -98 -165 -98h-239v22h58v611h-58v22h249q97 0 155 -100q54 -93 54 -232zM378 263v161q0 125 -36 172q-28 37 -89 37h-45v-611h36q68 0 95 36q39 53 39 205z" />
    <glyph glyph-name="E" unicode="E" horiz-adv-x="455" 
d="M445 217l-7 -217h-410v22h58v611h-58v22h400l5 -210h-25q-7 73 -32 119q-38 69 -115 69h-67v-262h46q35 0 54 36.5t19 82.5h24v-262h-24q0 74 -26 102q-17 19 -47 19h-46v-327h67q63 0 109 61q41 55 51 134h24z" />
    <glyph glyph-name="F" unicode="F" horiz-adv-x="440" 
d="M447 445h-24q-12 96 -49 142t-99 46h-67v-262h47q35 0 55 43q17 36 17 76h24v-262h-24q0 73 -27 102q-17 19 -45 19h-47v-327h65v-22h-231v22h58v611h-58v22h400z" />
    <glyph glyph-name="G" unicode="G" horiz-adv-x="506" 
d="M499 250h-49q0 -156 -76 -219q-47 -39 -119 -39q-86 0 -147.5 104.5t-61.5 235.5q0 125 61 224q66 107 163 107q24 0 47 -8t45 -16l17 -3q21 0 24 19h25v-211h-19q-15 100 -57 153q-36 44 -80 44q-63 0 -87 -74q-17 -52 -17 -161v-137q0 -124 21 -189.5t69 -65.5
q31 0 51 21q29 31 29 102v113h-59v22h220v-22z" />
    <glyph glyph-name="H" unicode="H" horiz-adv-x="544" 
d="M523 0h-215v22h49v313h-163v-313h49v-22h-215v22h58v611h-58v22h215v-22h-49v-276h163v276h-49v22h215v-22h-58v-611h58v-22z" />
    <glyph glyph-name="I" unicode="I" horiz-adv-x="275" 
d="M254 0h-226v22h59v611h-59v22h226v-22h-59v-611h59v-22z" />
    <glyph glyph-name="J" unicode="J" horiz-adv-x="361" 
d="M340 633h-59v-380q0 -136 -22 -188q-31 -73 -121 -73q-60 0 -94 41q-30 36 -30 86q0 41 19.5 65.5t44.5 24.5q24 0 42.5 -22.5t18.5 -64.5q0 -21 -13 -42t-33.5 -23.5t-20.5 -14.5q0 -9 14.5 -18.5t31.5 -9.5q38 0 49 37q6 20 6 66v516h-59v22h226v-22z" />
    <glyph glyph-name="K" unicode="K" horiz-adv-x="514" 
d="M521 0h-213v22h54l-118 302l-36 -47v-255h59v-22h-225v22h58v611h-58v22h225v-22h-59v-313l111 148q41 54 44 59q21 33 21 60q0 28 -18 39q-12 7 -36 7v22h186v-22q-49 -7 -149 -144l-47 -64l157 -403h44v-22z" />
    <glyph glyph-name="L" unicode="L" horiz-adv-x="439" 
d="M446 217l-8 -217h-396v22h59v611h-59v22h226v-22h-59v-611h52q63 0 109 62q41 56 51 133h25z" />
    <glyph glyph-name="M" unicode="M" horiz-adv-x="620" 
d="M599 0h-225v22h59v580l-153 -602h-14l-155 602v-452q0 -69 12.5 -98.5t42.5 -29.5v-22h-138v22q35 6 48 39t13 93v380q0 57 -7 72q-11 23 -50 27v22h175l110 -420l109 420h173v-22h-58v-611h58v-22z" />
    <glyph glyph-name="N" unicode="N" horiz-adv-x="523" 
d="M502 633q-26 0 -39 -25q-16 -30 -16 -103v-513h-17l-305 560v-402q0 -76 16 -105q13 -23 39 -23v-22h-138v22q39 7 52 47q9 28 9 85v380q0 58 -7 73q-10 22 -50 26v22h146l233 -429v275q0 62 -9 88q-13 39 -52 44v22h138v-22z" />
    <glyph glyph-name="O" unicode="O" horiz-adv-x="511" 
d="M489 327q0 -141 -68 -238t-163 -97q-89 0 -156 89q-73 97 -73 246q0 148 74 246q68 90 155 90q89 0 157 -90q74 -98 74 -246zM367 219v214q0 94 -24 147q-28 61 -85 61q-64 0 -91 -85q-16 -51 -16 -123v-214q0 -109 32 -161q27 -44 75 -44q62 0 89 66q20 49 20 139z" />
    <glyph glyph-name="P" unicode="P" horiz-adv-x="468" 
d="M461 475q0 -103 -53 -149t-163 -46h-50v-258h66v-22h-233v22h59v611h-59v22h221q115 0 167 -53q45 -45 45 -127zM339 447v71q0 61 -15 83q-22 32 -87 32h-42v-331h35q59 0 79 20q30 29 30 125z" />
    <glyph glyph-name="Q" unicode="Q" horiz-adv-x="526" 
d="M601 -60q0 -50 -49.5 -87.5t-111.5 -37.5q-46 0 -82 19q-28 15 -71 55q-50 48 -54 51q-21 14 -42 14q-16 0 -34.5 -8.5t-33.5 -21.5l-10 13q41 34 71 47t56 13q-94 18 -149 133q-45 95 -45 199q0 130 63 229q67 105 166 105t167 -106q64 -100 64 -229q0 -110 -49 -206
q-60 -116 -160 -126q22 0 49 -18q17 -11 38 -31q30 -35 50 -55q38 -38 65 -38q16 0 27.5 10.5t11.5 23.5q0 7 -4.5 14t-8.5 13q-8 14 -8 23q0 19 10.5 32.5t29.5 13.5q17 0 30.5 -11.5t13.5 -32.5zM384 219v214q0 113 -33 165q-27 43 -76 43q-60 0 -87 -70q-20 -53 -20 -138
v-214q0 -83 16 -130q25 -75 91 -75q68 0 93 75q16 47 16 130z" />
    <glyph glyph-name="R" unicode="R" horiz-adv-x="516" 
d="M529 17q-14 -11 -27 -16q-22 -9 -49 -9q-61 0 -81 46q-11 27 -20 125l-8 96q-11 72 -75 72h-61v-309h59v-22h-225v22h58v611h-58v22h240q108 0 153 -43q39 -38 39 -109q0 -68 -35 -106t-113 -51v-9q67 -12 99 -46q26 -28 34 -79q6 -87 10.5 -135t32.5 -48q9 0 19 8z
M352 466v58q0 47 -14 71q-22 38 -79 38h-51v-280h49q42 0 63 17q32 26 32 96z" />
    <glyph glyph-name="S" unicode="S" horiz-adv-x="410" 
d="M389 196q0 -74 -34 -130q-45 -74 -132 -74q-44 0 -54 15t-61 15q-16 0 -24.5 -5.5t-11.5 -16.5h-30v233h21q12 -77 47 -138q47 -81 111 -81l24 2q33 4 55.5 33t22.5 78q0 55 -29 89q-16 19 -56 41l-83 46q-57 32 -81 88q-17 40 -17 94q0 87 48 136q42 42 99 42
q27 0 49 -10q30 -14 41 -16h11q6 1 9 4q7 6 13 14h31v-186h-22q-5 20 -11.5 41t-10.5 31q-25 60 -59 84q-23 16 -49 16q-35 0 -57 -15q-30 -20 -30 -65q0 -51 21 -81q16 -22 48 -40l91 -50q50 -30 80 -80t30 -114z" />
    <glyph glyph-name="T" unicode="T" horiz-adv-x="447" 
d="M446 443h-26q-9 70 -32 119q-34 71 -88 71h-19v-611h59v-22h-226v22h59v611h-19q-48 0 -78 -50.5t-42 -139.5h-26l5 212h428z" />
    <glyph glyph-name="U" unicode="U" horiz-adv-x="524" 
d="M503 633q-25 0 -38 -23q-17 -31 -17 -105v-304q0 -72 -22 -120q-41 -89 -145 -89q-112 0 -154 82q-26 51 -26 142v417h-59v22h226v-22h-59v-462q0 -70 17 -103q22 -43 81 -43q58 0 88.5 46.5t30.5 140.5v289q0 59 -8 84q-13 41 -53 48v22h138v-22z" />
    <glyph glyph-name="V" unicode="V" horiz-adv-x="437" 
d="M458 633q-33 -3 -51 -47q-6 -15 -20 -76l-121 -518h-47l-167 641h-52v22h217v-22h-53l120 -464l79 345q2 8 3.5 26.5t1.5 39.5q0 32 -19 44t-40 9v22h149v-22z" />
    <glyph glyph-name="W" unicode="W" horiz-adv-x="674" 
d="M695 633q-32 -14 -48 -48q-12 -24 -29 -91l-129 -502h-44l-100 410l-106 -410h-44l-154 641h-41v22h202v-22h-52l110 -459l72 283l-40 176h-41v22h205v-22h-55l110 -459l70 280q12 50 16.5 75.5t4.5 43.5q0 31 -10 43q-14 17 -54 17v22h157v-22z" />
    <glyph glyph-name="X" unicode="X" horiz-adv-x="491" 
d="M497 0h-208v22h42l-118 254l-62 -129q-10 -20 -14 -30q-8 -20 -8 -30q0 -36 11 -50.5t49 -14.5v-22h-181v22q30 3 51.5 20.5t55.5 87.5l85 173l-153 330h-32v22h208v-22h-52l107 -232l51 106q7 14 14 35.5t7 32.5q0 26 -12.5 42t-37.5 16v22h171v-22q-35 0 -58 -25
t-55 -93l-66 -143l159 -350h46v-22z" />
    <glyph glyph-name="Y" unicode="Y" horiz-adv-x="435" 
d="M463 633q-33 -11 -61 -60q-38 -66 -114 -263v-288h59v-22h-225v22h58v280l-142 331h-38v22h219v-22h-54l118 -277l54 130q13 30 14 33q10 26 10 38q0 81 -44 76v22h146v-22z" />
    <glyph glyph-name="Z" unicode="Z" horiz-adv-x="462" 
d="M441 241l-15 -241h-384l269 633h-57q-51 0 -88 -36q-53 -51 -70 -167h-26l8 225h360l-269 -633h49q61 0 114 51q64 61 84 168h25z" />
    <glyph glyph-name="bracketleft" unicode="[" horiz-adv-x="433" 
d="M363 -229h-209v924h209v-24h-107v-876h107v-24z" />
    <glyph glyph-name="backslash" unicode="\" horiz-adv-x="475" 
d="M447 -213h-50l-369 868h50z" />
    <glyph glyph-name="bracketright" unicode="]" horiz-adv-x="433" 
d="M265 -229h-209v24h107v876h-107v24h209v-924z" />
    <glyph glyph-name="asciicircum" unicode="^" horiz-adv-x="364" 
d="M347 493h-84l-81 81l-81 -81h-84l165 165z" />
    <glyph glyph-name="underscore" unicode="_" horiz-adv-x="532" 
d="M532 -224h-532v50h532v-50z" />
    <glyph glyph-name="grave" unicode="`" horiz-adv-x="318" 
d="M268 509h-26l-192 138h121z" />
    <glyph glyph-name="a" unicode="a" horiz-adv-x="361" 
d="M361 45q-18 -29 -38.5 -41t-46.5 -12t-43 20.5t-20 46.5q-16 -26 -41 -44q-32 -23 -66 -23q-45 0 -70 32.5t-25 81.5q0 79 54 113q48 30 146 30v113q0 35 -15 49t-41 14q-23 0 -36 -7t-13 -20q0 -10 8 -19.5t12 -15t7 -11.5q7 -13 7 -29q0 -26 -15 -44t-37 -18
q-28 0 -42 21.5t-14 46.5q0 44 34 76q42 40 120 40q55 0 85 -16q38 -21 38 -68v-274q0 -26 2 -38.5t12 -12.5q7 0 12.5 4t14.5 15zM211 84v145q-59 -5 -79 -41q-13 -23 -13 -73q0 -37 7 -57t29 -20q15 0 37 23q9 10 19 23z" />
    <glyph glyph-name="b" unicode="b" 
d="M363 219q0 -91 -33 -154q-38 -73 -105 -73q-32 0 -48 9q-27 15 -41 60v-61h-132v20h34v604h-35v20h74q13 0 30 2.5t29 5.5v-269q8 29 29.5 45.5t51.5 16.5q59 0 102.5 -63t43.5 -163zM255 171v110q0 72 -15 103t-39 31q-26 0 -41 -24q-23 -36 -23 -118q0 -122 5 -159
q13 -98 60 -98q37 0 48 79q5 36 5 76z" />
    <glyph glyph-name="c" unicode="c" horiz-adv-x="321" 
d="M299 127q-21 -81 -60 -113q-27 -22 -66 -22q-74 0 -119.5 65.5t-45.5 152.5q0 108 56 176q49 59 110 59q41 0 77 -32q41 -37 41 -94q0 -39 -19 -60q-15 -17 -37 -17q-24 0 -38 22.5t-14 52.5q0 17 11 31q8 10 14.5 19t6.5 17q0 41 -40 41q-36 0 -48 -29t-12 -85v-157
q0 -64 10 -94q16 -48 60 -48q33 0 60.5 35.5t38.5 84.5z" />
    <glyph glyph-name="d" unicode="d" horiz-adv-x="384" 
d="M367 0h-133v61q-7 -30 -25 -47q-23 -22 -63 -22q-66 0 -104 73q-34 65 -34 154q0 104 52 169q46 57 104 57q22 0 43 -18t27 -44v241h-35v20h75q22 0 58 8v-632h35v-20zM233 216v57q0 84 -23 119q-15 23 -40 23q-31 0 -42.5 -39.5t-11.5 -94.5v-130q0 -75 19 -110
q14 -25 34 -25q40 0 55 74q9 45 9 126z" />
    <glyph glyph-name="e" unicode="e" horiz-adv-x="329" 
d="M307 235h-191v-91q0 -60 10 -89q15 -43 55 -43q36 0 68 36q23 25 38 61l13 -7q-22 -51 -48 -77q-32 -33 -74 -33q-69 0 -119.5 66t-50.5 161q0 90 45 158t103 68q56 0 100 -51q51 -59 51 -159zM209 255v46q0 74 -12 99t-36 25q-26 0 -35.5 -23t-9.5 -61v-86h93z" />
    <glyph glyph-name="f" unicode="f" horiz-adv-x="213" 
d="M269 565q0 -27 -16 -40t-36 -13q-22 0 -34.5 17.5t-12.5 39.5q0 15 7 26q2 4 15 20q6 8 6 13q0 4 -9 7t-18 3q-18 0 -26 -17t-8 -44l4 -53q5 -35 5 -75v-32h62v-20h-62v-377h35v-20h-167v20h34v377h-42v20h42q0 144 32 196q27 45 83 45q53 0 81 -29q25 -26 25 -64z" />
    <glyph glyph-name="g" unicode="g" horiz-adv-x="331" 
d="M331 449q0 -22 -11.5 -31t-26.5 -9q-16 0 -26 18q-3 6 -7 12.5t-9 6.5t-8.5 -5.5t-5.5 -14.5q32 -21 47 -49t15 -63q0 -70 -30 -111q-36 -50 -109 -50q-26 0 -46 3.5t-44 16.5q-10 -12 -14.5 -21t-4.5 -22q0 -47 44 -47l106 5q55 0 79 -13q42 -22 42 -86q0 -84 -50 -142
q-55 -64 -148 -64q-55 0 -83 24q-31 27 -31 80q0 29 13 44t29 15q10 0 20 -5t17 -17q-18 -25 -18 -55q0 -24 18 -41t54 -17q50 0 85.5 32t35.5 78q0 35 -17.5 46t-51.5 11l-90 -4q-50 0 -74 21q-28 25 -28 76q0 29 11.5 60.5t39.5 55.5q-20 25 -29.5 53t-9.5 59q0 89 57 125
q33 21 79 21q18 0 34.5 -2t31.5 -8q13 35 25 51q17 22 40 22q24 0 38 -20q11 -16 11 -39zM193 244v108q0 40 -10.5 54t-25.5 14t-23 -11q-13 -17 -13 -57v-108q0 -33 8.5 -49.5t27.5 -16.5q18 0 27 17t9 49z" />
    <glyph glyph-name="h" unicode="h" horiz-adv-x="381" 
d="M364 0h-161v20h29v271q0 51 -4 69q-7 32 -31 32q-21 0 -41 -26.5t-20 -67.5v-278h30v-20h-162v20h34v604h-35v20h74q14 0 24 1t35 7v-279q25 46 61 63q20 9 43 9q50 0 70 -31t20 -91v-303h34v-20z" />
    <glyph glyph-name="i" unicode="i" horiz-adv-x="191" 
d="M138 588q0 -24 -15 -41t-35 -17q-18 0 -33 14q-18 17 -18 44q0 24 14.5 40.5t36.5 16.5q20 0 35 -16t15 -41zM174 0h-167v20h35v397h-36v20h75q14 0 24 1t35 7v-425h34v-20z" />
    <glyph glyph-name="j" unicode="j" horiz-adv-x="205" 
d="M142 588q0 -27 -15.5 -42.5t-34.5 -15.5q-20 0 -35 17t-15 41q0 22 13 39.5t37 17.5q21 0 35.5 -14t14.5 -43zM149 46q0 -115 -26 -174q-32 -73 -104 -73q-41 0 -65 25t-24 66q0 35 15 54t37 19q20 0 35 -19t15 -39l-3 -16q-14 -24 -27 -49q0 -8 6 -14t14 -6q25 0 31 45
q3 22 3 44l-2 32l-3 67v409h-45v20h84q22 0 33.5 2t25.5 6v-399z" />
    <glyph glyph-name="k" unicode="k" horiz-adv-x="373" 
d="M366 0h-155v20h26l-81 185l-19 -26v-159h29v-20h-162v20h35v604h-36v20h93q6 0 19.5 3t21.5 5v-438l66 96q13 18 17 27q8 17 8 36q0 25 -17 34.5t-37 9.5v20h173v-20q-29 0 -48 -16q-9 -8 -30 -36l-47 -63l123 -282h21v-20z" />
    <glyph glyph-name="l" unicode="l" horiz-adv-x="188" 
d="M171 0h-167v20h35v604h-36v20h75q29 0 59 8v-632h34v-20z" />
    <glyph glyph-name="m" unicode="m" horiz-adv-x="580" 
d="M563 0h-162v20h29v271q0 61 -8.5 81t-26.5 20q-23 0 -42 -26t-19 -68v-278h29v-20h-156v20h29v271q0 48 -5 69q-8 32 -31 32t-41.5 -27t-18.5 -67v-278h29v-20h-162v20h35v397h-36v20h94q5 0 20 3t20 5v-72q24 44 56 61q21 11 48 11q37 0 60 -20t28 -56q14 29 39 50
q31 26 68 26q57 0 77 -44q12 -26 12 -78v-303h35v-20z" />
    <glyph glyph-name="n" unicode="n" 
d="M368 0h-162v20h29v271q0 53 -7 77t-28 24q-23 0 -41.5 -27t-18.5 -67v-278h29v-20h-162v20h35v397h-36v20h93q6 0 19.5 3t21.5 5v-72q25 46 61 63q20 9 43 9q56 0 77 -45q12 -26 12 -77v-303h35v-20z" />
    <glyph glyph-name="o" unicode="o" horiz-adv-x="350" 
d="M328 218q0 -99 -48.5 -162.5t-111.5 -63.5q-61 0 -109 62q-51 66 -51 164q0 85 44 153q48 74 116 74q69 0 116 -73q44 -68 44 -154zM220 126v184q0 57 -7 80q-11 35 -45 35t-45 -35q-7 -22 -7 -80v-184q0 -70 12.5 -92t39.5 -22q34 0 45 36q7 22 7 78z" />
    <glyph glyph-name="p" unicode="p" 
d="M363 217q0 -106 -51 -169q-45 -56 -106 -56q-22 0 -42 17t-28 44v-242h34v-20h-166v20h34v606h-35v20h93q9 0 15 1t25 7v-70q6 28 25 46q25 24 64 24q70 0 108 -81q30 -64 30 -147zM255 156v109q0 65 -8 101q-12 55 -45 55q-41 0 -56 -77q-10 -51 -10 -142v-39
q0 -83 22 -117q16 -24 43 -24q23 0 38.5 31.5t15.5 102.5z" />
    <glyph glyph-name="q" unicode="q" 
d="M368 417h-35v-604h34v-20h-172v20h40v240q-7 -24 -28 -42.5t-54 -18.5q-58 0 -100 61q-45 65 -45 164q0 83 30 147q38 81 108 81q35 0 57 -16.5t32 -53.5v70q19 -8 39 -8h94v-20zM234 163v39q0 96 -9 142q-15 77 -56 77q-33 0 -45 -54q-8 -35 -8 -102v-109q0 -72 15 -103
t39 -31q26 0 41 23q23 35 23 118z" />
    <glyph glyph-name="r" unicode="r" horiz-adv-x="300" 
d="M307 359q0 -36 -17.5 -57.5t-43.5 -21.5q-19 0 -33 13q-19 17 -19 50q0 11 2.5 23.5t7 20t8.5 15t4 16.5q0 6 -8 7h-7q-22 -3 -38 -30q-23 -39 -23 -114v-261h35v-20h-168v20h35v397h-36v20h76q16 0 25.5 1.5t32.5 6.5v-51q26 51 81 51q41 0 63.5 -23.5t22.5 -62.5z" />
    <glyph glyph-name="s" unicode="s" horiz-adv-x="295" 
d="M273 140q0 -65 -33.5 -106.5t-89.5 -41.5q-26 0 -44 8q-21 12 -32 18t-15 6q-20 0 -20 -25h-17v166h21q0 -58 32.5 -105.5t76.5 -47.5q28 0 46.5 16.5t18.5 49.5q0 37 -20 58q-13 14 -42 26l-53 22q-46 19 -64 59q-13 28 -13 67q0 61 30.5 98t84.5 37q28 0 46 -7
q17 -9 35 -17q16 0 19 17h13v-129h-17q-4 50 -31.5 83t-64.5 33q-25 0 -43.5 -12t-18.5 -36q0 -25 8 -41q13 -26 45 -38l58 -22q49 -18 70 -63q14 -30 14 -73z" />
    <glyph glyph-name="t" unicode="t" horiz-adv-x="219" 
d="M199 30q-14 -15 -35 -26.5t-48 -11.5q-39 0 -56.5 23.5t-17.5 71.5v330h-36v20h36v136l98 37v-173h59v-20h-59v-319q0 -27 4.5 -42t23.5 -15q11 0 22 8z" />
    <glyph glyph-name="u" unicode="u" 
d="M368 0h-132v67q-17 -34 -48 -54.5t-69 -20.5q-40 0 -60.5 22.5t-20.5 63.5v339h-35v20h74q16 0 26.5 1t32.5 7v-352q0 -34 15 -47q10 -9 26 -9q20 0 39.5 28.5t19.5 61.5v290h-35v20h74q21 0 36 2.5t23 5.5v-425h34v-20z" />
    <glyph glyph-name="v" unicode="v" horiz-adv-x="320" 
d="M318 417q-30 -6 -44 -46q-2 -6 -14 -51l-86 -320h-40l-120 417h-30v20h170v-20h-36l77 -269l45 172l8 38v22q-2 21 -13 29t-27 8v20h110v-20z" />
    <glyph glyph-name="w" unicode="w" horiz-adv-x="506" 
d="M520 417q-25 -11 -39 -41q-8 -16 -22 -64l-91 -312h-29l-81 262l-74 -262h-29l-135 417h-34v20h169v-20h-34l86 -266l42 146l-35 120h-24v20h160v-20h-36l76 -266l40 135q8 29 11 41.5t3 32.5q0 17 -1 22q-7 35 -41 35v20h118v-20z" />
    <glyph glyph-name="x" unicode="x" horiz-adv-x="365" 
d="M357 0h-185v20h39l-66 152l-56 -103q-7 -13 -7 -23q0 -12 10.5 -19t36.5 -7v-20h-135v20q21 0 38 9.5t30 33.5l72 128l-99 226h-30v20h172v-20h-33l63 -144l36 69q5 9 8.5 17.5t5 17t1.5 13.5q0 3 -3 12t-10 12t-19 3h-8v20h124v-20q-24 0 -41 -19q-6 -7 -21 -34
l-60 -112l102 -232h35v-20z" />
    <glyph glyph-name="y" unicode="y" horiz-adv-x="304" 
d="M340 417h-6q-18 0 -33.5 -23t-25.5 -61l-88 -345q-28 -110 -56 -153t-72 -43q-38 0 -62.5 27.5t-24.5 70.5q0 35 19.5 54.5t42.5 19.5q19 0 33.5 -15t14.5 -44q0 -14 -6.5 -27.5t-9.5 -19.5q-7 -14 -7 -23q0 -8 7 -13q2 -1 7 -4q17 0 33 19q24 29 46 100l-145 480h-27v20
h170v-20h-38l90 -294l53 208q2 9 3.5 22.5t1.5 27.5q0 15 -12.5 25.5t-31.5 10.5h-10v20h134v-20z" />
    <glyph glyph-name="z" unicode="z" horiz-adv-x="307" 
d="M290 181l-6 -181h-284l158 417h-11q-52 0 -83 -46q-27 -41 -37 -114h-18l7 180h264l-160 -417h29q36 0 65 27q45 42 58 134h18z" />
    <glyph glyph-name="braceleft" unicode="{" horiz-adv-x="353" 
d="M300 -173l-5 -34q-65 7 -101 46q-48 51 -48 154l3 73q0 81 -22 124q-26 50 -71 50v41q36 3 59 33q34 45 34 141l-3 73q0 102 48 153q37 40 101 47l5 -34q-31 -6 -51 -25q-26 -25 -26 -70q0 -17 2.5 -51t2.5 -48v-54q0 -67 -28.5 -110t-92.5 -76q63 -30 92 -74t29 -111
v-54q0 -27 -2.5 -61t-2.5 -38q0 -35 21 -63t56 -32z" />
    <glyph glyph-name="bar" unicode="|" horiz-adv-x="512" 
d="M281 -224h-50v1053h50v-1053z" />
    <glyph glyph-name="braceright" unicode="}" horiz-adv-x="353" 
d="M300 240q-36 -3 -59 -33q-34 -45 -34 -141l3 -73q0 -102 -48 -153q-37 -40 -101 -47l-5 34q31 6 51 25q26 25 26 70q0 17 -2.5 51t-2.5 48v54q0 67 28.5 110t92.5 76q-63 30 -92 74t-29 111v54q0 27 2.5 61t2.5 38q0 35 -21 63t-56 32l5 34q65 -7 101 -46q48 -51 48 -154
l-3 -73q0 -81 22 -124q26 -50 71 -50v-41z" />
    <glyph glyph-name="asciitilde" unicode="~" horiz-adv-x="518" 
d="M476 367q-25 -54 -52.5 -79.5t-56.5 -25.5q-38 0 -117 18q-47 11 -67 14t-36 3q-22 0 -37 -7t-26 -29h-28q20 47 51 75q38 34 83 34q23 0 56.5 -5.5t69 -15.5t57.5 -14t36 -4q7 0 15 7q12 10 25 29h27z" />
    <glyph glyph-name="c128" horiz-adv-x="610" 
d="M609 181q0 -76 -48.5 -132.5t-113.5 -56.5q-60 0 -89 47q-22 36 -22 82q0 32 15 51t37 19q23 0 38.5 -15.5t15.5 -39.5q0 -45 -26 -56q-34 -15 -35 -16q-2 -3 0 -10q5 -17 16 -25q7 -5 18 -7h20q34 7 45 53q7 30 7 94q0 85 -19 128q-25 56 -83 56q-24 0 -46.5 -9.5
t-39.5 -30.5v-313h-167v22h59v611h-29q-49 0 -84.5 -57t-35.5 -125h-20l5 204h436l5 -204h-20q-12 90 -44.5 136t-75.5 46h-29v-292q33 24 70 33.5t64 9.5q98 0 143 -73q33 -53 33 -130z" />
    <glyph glyph-name="c128" unicode="&#x402;" horiz-adv-x="610" 
d="M609 181q0 -76 -48.5 -132.5t-113.5 -56.5q-60 0 -89 47q-22 36 -22 82q0 32 15 51t37 19q23 0 38.5 -15.5t15.5 -39.5q0 -45 -26 -56q-34 -15 -35 -16q-2 -3 0 -10q5 -17 16 -25q7 -5 18 -7h20q34 7 45 53q7 30 7 94q0 85 -19 128q-25 56 -83 56q-24 0 -46.5 -9.5
t-39.5 -30.5v-313h-167v22h59v611h-29q-49 0 -84.5 -57t-35.5 -125h-20l5 204h436l5 -204h-20q-12 90 -44.5 136t-75.5 46h-29v-292q33 24 70 33.5t64 9.5q98 0 143 -73q33 -53 33 -130z" />
    <glyph glyph-name="c129" horiz-adv-x="392" 
d="M406 445h-25q-20 118 -49.5 153t-78.5 35h-58v-611h72v-22h-239v22h59v611h-59v22h374z" />
    <glyph glyph-name="c129" unicode="&#x403;" horiz-adv-x="392" 
d="M406 445h-25q-20 118 -49.5 153t-78.5 35h-58v-611h72v-22h-239v22h59v611h-59v22h374z" />
    <glyph glyph-name="quotesinglbase" unicode="&#x201a;" horiz-adv-x="285" 
d="M201 5q0 -38 -15 -70q-22 -47 -74 -87l-12 17q32 21 51.5 56t19.5 63q0 6 -3.5 11.5t-7.5 5.5q-5 0 -15 -6t-25 -6q-21 0 -35.5 14.5t-14.5 39.5q0 26 18.5 40.5t46.5 14.5q25 0 45.5 -24t20.5 -69z" />
    <glyph glyph-name="florin" unicode="&#x192;" horiz-adv-x="287" 
d="M279 267h-22q-9 73 -33 108q-29 42 -85 42v-397h40v-20h-173v20h35v397h-35v20h268z" />
    <glyph glyph-name="florin" unicode="&#x453;" horiz-adv-x="287" 
d="M279 267h-22q-9 73 -33 108q-29 42 -85 42v-397h40v-20h-173v20h35v397h-35v20h268z" />
    <glyph glyph-name="quotedblbase" unicode="&#x201e;" horiz-adv-x="539" 
d="M427 4q0 -48 -22 -84q-18 -30 -67 -73l-12 17q27 17 48.5 52.5t21.5 66.5q0 5 -3 11t-7 6t-15 -6t-26 -6q-21 0 -35.5 14.5t-14.5 39.5q0 27 19 41t46 14q29 0 48 -26.5t19 -66.5zM230 5q0 -38 -15 -70q-22 -47 -74 -87l-12 17q32 21 51.5 56t19.5 63q0 6 -3.5 11.5
t-7.5 5.5q-5 0 -15 -6t-25 -6q-24 0 -37.5 15.5t-13.5 38.5t18 39t47 16q28 0 47.5 -24.5t19.5 -68.5z" />
    <glyph glyph-name="ellipsis" unicode="&#x2026;" horiz-adv-x="714" 
d="M644 45q0 -20 -13 -36q-16 -20 -43 -20q-26 0 -41 18t-15 38q0 23 16.5 39.5t39.5 16.5t39.5 -16.5t16.5 -39.5zM406 45q0 -20 -13 -36q-16 -20 -43 -20q-26 0 -41 18t-15 38q0 23 16.5 39.5t39.5 16.5t39.5 -16.5t16.5 -39.5zM168 45q0 -20 -13 -36q-16 -20 -43 -20
q-26 0 -41 18t-15 38q0 23 16.5 39.5t39.5 16.5t39.5 -16.5t16.5 -39.5z" />
    <glyph glyph-name="dagger" unicode="&#x2020;" horiz-adv-x="576" 
d="M534 387q0 -23 -15 -37t-40 -14q-22 0 -74 22t-81 22l-23 -1v-34q0 -95 10.5 -178.5t21.5 -160.5t11 -143q0 -38 -7 -56q-13 -33 -49 -33q-35 0 -48 32q-8 20 -8 57q0 65 10.5 142t21.5 160.5t11 179.5v34q-6 1 -17 1q-32 0 -86 -22t-75 -22q-24 0 -39.5 14.5t-15.5 36.5
q0 26 12 44.5t35 18.5q44 0 79 -12q82 -28 90 -28q11 0 17 1v14q0 23 -2 35.5t-12 46.5q-14 40 -19 57q-10 30 -10 48q0 24 12.5 41t43.5 17t45 -19q11 -15 11 -39q0 -17 -10 -47t-18.5 -57t-11.5 -47t-3 -36v-14l16 -1q68 0 111 20t59 20q22 0 34.5 -18.5t12.5 -44.5z" />
    <glyph glyph-name="daggerdbl" unicode="&#x2021;" horiz-adv-x="456" 
d="M428 162q-22 -82 -38 -114q-28 -56 -69 -56q-10 0 -19 0.5t-20 3.5q-20 6 -54 25q-25 14 -53 14q-19 0 -40 -5t-63 -25l-7 19q39 19 51 37t12 55v52q0 16 -2 34q-5 45 -5 51q-3 25 -5 45t-2 42h-72v23h72v46q0 99 36 170q43 84 118 84q63 0 105 -33t42 -83
q0 -31 -17.5 -52t-39.5 -21q-25 0 -40.5 22.5t-15.5 48.5q0 11 1.5 17t8.5 18q3 5 10.5 15.5t7.5 14.5q0 13 -13 22t-38 9q-30 0 -48 -27.5t-18 -68.5q0 -16 3 -42q7 -58 7 -61l5 -79h111v-23h-111q0 -71 -21 -145t-57 -114l2 -4q34 31 48 40q20 13 38 13q36 0 72 -22
q2 -1 24 -15q16 -10 24 -10q21 0 35 25q10 18 20 58z" />
    <glyph glyph-name="perthousand" unicode="&#x2030;" horiz-adv-x="1133" 
d="M1007 92q0 -80 -39 -134.5t-96 -54.5q-61 0 -99 61q-34 55 -34 127q0 71 34 127q38 62 99 62q57 0 96 -54t39 -134zM380 519q0 -80 -39 -134.5t-96 -54.5q-61 0 -99 61q-34 55 -34 127q0 71 34 127q38 62 99 62q57 0 96 -54t39 -134zM603 766l-392 -944l-28 18l393 943z
M676 92q0 -80 -39 -134.5t-96 -54.5q-61 0 -99 61q-34 55 -34 127q0 71 34 127q38 62 99 62q57 0 96 -54t39 -134zM916 0v183q0 42 -15 62q-11 15 -29 15q-17 0 -27 -14q-15 -20 -15 -63v-183q0 -39 10.5 -58t31.5 -19q17 0 28 14q16 20 16 63zM289 427v183q0 42 -15 62
q-11 15 -29 15q-17 0 -27 -14q-15 -20 -15 -63v-183q0 -39 10.5 -58t31.5 -19q17 0 28 14q16 20 16 63zM585 0v183q0 42 -15 62q-11 15 -29 15q-17 0 -27 -14q-15 -20 -15 -63v-183q0 -39 10.5 -58t31.5 -19q17 0 28 14q16 20 16 63z" />
    <glyph glyph-name="Scaron" unicode="&#x160;" horiz-adv-x="695" 
d="M688 184q0 -109 -67 -153q-47 -31 -127 -31h-207v22h59v611h-65q-24 0 -42 -9.5t-25.5 -29.5t-10 -86t-2.5 -218v-42.5t1 -42.5q0 -104 -15 -149q-21 -64 -81 -64q-44 0 -66.5 34.5t-22.5 76.5q0 33 18 55.5t48 22.5q23 0 41 -19.5t18 -54.5q0 -22 -9 -40
q-4 -7 -13 -18.5t-9 -17.5q0 -17 16 -17q25 0 37 37q9 28 9 67q3 34 6 179.5t3 219.5q0 68 -14 92t-53 24h-15v22h412v-22h-58v-259h29q93 0 149 -50t56 -140zM566 148v78q0 72 -19.5 99t-63.5 27h-29v-330h25q47 0 67 27t20 99z" />
    <glyph glyph-name="Scaron" unicode="&#x409;" horiz-adv-x="695" 
d="M688 184q0 -109 -67 -153q-47 -31 -127 -31h-207v22h59v611h-65q-24 0 -42 -9.5t-25.5 -29.5t-10 -86t-2.5 -218v-42.5t1 -42.5q0 -104 -15 -149q-21 -64 -81 -64q-44 0 -66.5 34.5t-22.5 76.5q0 33 18 55.5t48 22.5q23 0 41 -19.5t18 -54.5q0 -22 -9 -40
q-4 -7 -13 -18.5t-9 -17.5q0 -17 16 -17q25 0 37 37q9 28 9 67q3 34 6 179.5t3 219.5q0 68 -14 92t-53 24h-15v22h412v-22h-58v-259h29q93 0 149 -50t56 -140zM566 148v78q0 72 -19.5 99t-63.5 27h-29v-330h25q47 0 67 27t20 99z" />
    <glyph glyph-name="guilsinglleft" unicode="&#x2039;" horiz-adv-x="306" 
d="M278 11l-9 -8q-54 62 -117 117q-59 51 -124 92q67 42 124 90q62 53 117 119l9 -8q-58 -101 -139 -201q40 -50 74 -98.5t65 -102.5z" />
    <glyph glyph-name="OE" unicode="&#x152;" horiz-adv-x="721" 
d="M714 184q0 -109 -67 -153q-47 -31 -127 -31h-198v22h49v313h-162v-313h48v-22h-215v22h59v611h-59v22h215v-22h-48v-276h162v276h-49v22h216v-22h-59v-259h29q94 0 148 -46q58 -50 58 -144zM592 148v78q0 81 -27 108q-18 18 -57 18h-29v-330h25q46 0 67 27t21 99z" />
    <glyph glyph-name="OE" unicode="&#x40a;" horiz-adv-x="721" 
d="M714 184q0 -109 -67 -153q-47 -31 -127 -31h-198v22h49v313h-162v-313h48v-22h-215v22h59v611h-59v22h215v-22h-48v-276h162v276h-49v22h216v-22h-59v-259h29q94 0 148 -46q58 -50 58 -144zM592 148v78q0 81 -27 108q-18 18 -57 18h-29v-330h25q46 0 67 27t21 99z" />
    <glyph glyph-name="c141" horiz-adv-x="487" 
d="M497 22q-15 -14 -31.5 -21t-33.5 -9h-20q-53 0 -72.5 41t-19.5 154q0 89 -21.5 117t-61.5 28h-43v-310h59v-22h-225v22h58v611h-58v22h225v-22h-59v-279h37q37 0 52 18q20 24 20 98q0 113 22 153t75 40q42 0 65 -30q18 -24 18 -56q0 -34 -16.5 -57.5t-45.5 -23.5
q-27 0 -42 19t-15 43l1 17l6 26q0 18 -10 18q-22 0 -28.5 -45.5t-6.5 -103.5q0 -51 -8 -76t-28 -41l1 -4q68 0 108 -45q37 -41 37 -114v-41q0 -58 6.5 -89.5t27.5 -31.5q9 0 18 9z" />
    <glyph glyph-name="c141" unicode="&#x40c;" horiz-adv-x="487" 
d="M497 22q-15 -14 -31.5 -21t-33.5 -9h-20q-53 0 -72.5 41t-19.5 154q0 89 -21.5 117t-61.5 28h-43v-310h59v-22h-225v22h58v611h-58v22h225v-22h-59v-279h37q37 0 52 18q20 24 20 98q0 113 22 153t75 40q42 0 65 -30q18 -24 18 -56q0 -34 -16.5 -57.5t-45.5 -23.5
q-27 0 -42 19t-15 43l1 17l6 26q0 18 -10 18q-22 0 -28.5 -45.5t-6.5 -103.5q0 -51 -8 -76t-28 -41l1 -4q68 0 108 -45q37 -41 37 -114v-41q0 -58 6.5 -89.5t27.5 -31.5q9 0 18 9z" />
    <glyph glyph-name="c142" horiz-adv-x="599" 
d="M606 0h-216v22h49v215v21q0 47 -7 67q-10 30 -40 30q-21 0 -47.5 -9t-46.5 -23v-301h49v-22h-215v22h58v611h-28q-57 0 -91 -73q-22 -48 -30 -108h-19l4 203h436l5 -203h-20q-9 66 -32 113q-34 68 -88 68h-29v-288q27 20 67.5 34t77.5 14q66 0 89 -55q15 -36 15 -114
v-202h59v-22z" />
    <glyph glyph-name="c142" unicode="&#x40b;" horiz-adv-x="599" 
d="M606 0h-216v22h49v215v21q0 47 -7 67q-10 30 -40 30q-21 0 -47.5 -9t-46.5 -23v-301h49v-22h-215v22h58v611h-28q-57 0 -91 -73q-22 -48 -30 -108h-19l4 203h436l5 -203h-20q-9 66 -32 113q-34 68 -88 68h-29v-288q27 20 67.5 34t77.5 14q66 0 89 -55q15 -36 15 -114
v-202h59v-22z" />
    <glyph glyph-name="c143" horiz-adv-x="561" 
d="M540 0h-189q-19 -33 -31 -79t-19 -127h-20q0 63 -10.5 106t-39.5 100h-189v22h59v611h-59v22h216v-22h-49v-611h164v611h-49v22h216v-22h-59v-611h59v-22z" />
    <glyph glyph-name="c143" unicode="&#x40f;" horiz-adv-x="561" 
d="M540 0h-189q-19 -33 -31 -79t-19 -127h-20q0 63 -10.5 106t-39.5 100h-189v22h59v611h-59v22h216v-22h-49v-611h164v611h-49v22h216v-22h-59v-611h59v-22z" />
    <glyph glyph-name="c144" horiz-adv-x="347" 
d="M325 227q0 -106 -35 -196q-39 -99 -138 -221l-10 11q29 48 47 111q28 97 28 217v149q0 52 -9.5 73t-22.5 21q-19 0 -37 -25q-21 -29 -21 -69v-278h29v-20h-161v20h34v478h-35v20h35v106h-35v20h74q14 0 25.5 1t33.5 7v-134h132v-20h-132v-132q23 43 37 57q21 22 53 22
q55 0 84 -73q24 -61 24 -145z" />
    <glyph glyph-name="c144" unicode="&#x452;" horiz-adv-x="347" 
d="M325 227q0 -106 -35 -196q-39 -99 -138 -221l-10 11q29 48 47 111q28 97 28 217v149q0 52 -9.5 73t-22.5 21q-19 0 -37 -25q-21 -29 -21 -69v-278h29v-20h-161v20h34v478h-35v20h35v106h-35v20h74q14 0 25.5 1t33.5 7v-134h132v-20h-132v-132q23 43 37 57q21 22 53 22
q55 0 84 -73q24 -61 24 -145z" />
    <glyph glyph-name="quoteleft" unicode="&#x2018;" horiz-adv-x="299" 
d="M215 469q0 -27 -19 -41.5t-46 -14.5q-25 0 -44 24q-22 27 -22 69q0 39 15 71q21 45 74 86l12 -16q-30 -22 -50.5 -56.5t-20.5 -63.5q0 -3 3 -9.5t8 -6.5q7 0 17 5.5t23 5.5q21 0 35.5 -14.5t14.5 -38.5z" />
    <glyph glyph-name="quoteright" unicode="&#x2019;" horiz-adv-x="285" 
d="M201 570q0 -39 -15 -71q-21 -45 -74 -86l-12 16q29 21 50 56t21 64q0 5 -1 7q-4 9 -10 9q-8 0 -17 -5.5t-23 -5.5q-21 0 -35.5 14.5t-14.5 39.5q0 26 18.5 40.5t46.5 14.5q25 0 45.5 -25.5t20.5 -67.5z" />
    <glyph glyph-name="quotedblleft" unicode="&#x201c;" horiz-adv-x="538" 
d="M426 470q0 -26 -18.5 -40.5t-46.5 -14.5q-26 0 -43 19q-23 25 -23 74q0 38 15 70q22 47 74 87l12 -17q-32 -22 -51.5 -54.5t-19.5 -64.5q0 -6 3.5 -11.5t7.5 -5.5q5 0 15 6t25 6q21 0 35.5 -14.5t14.5 -39.5zM229 470q0 -26 -19.5 -40.5t-45.5 -14.5t-43 19
q-23 25 -23 74q0 38 15 70q22 47 74 87l12 -17q-25 -16 -48 -52.5t-23 -66.5q0 -6 3.5 -11.5t7.5 -5.5q5 0 15 6t25 6q24 0 37 -16t13 -38z" />
    <glyph glyph-name="quotedblright" unicode="&#x201d;" horiz-adv-x="552" 
d="M440 572q0 -39 -15 -71q-21 -45 -74 -86l-12 16q28 20 49.5 54.5t21.5 65.5q0 3 -3 9.5t-8 6.5q-2 0 -16 -6t-24 -6q-19 0 -33 12q-17 15 -17 42t19 41.5t46 14.5q30 0 48 -26.5t18 -66.5zM243 571q0 -46 -25 -88.5t-64 -67.5l-12 16q28 19 49.5 54.5t21.5 65.5
q0 3 -3 9.5t-8 6.5q-2 0 -16 -6t-24 -6q-19 0 -33 12q-17 15 -17 42t19 41.5t46 14.5q21 0 39 -17q27 -25 27 -77z" />
    <glyph glyph-name="bullet" unicode="&#x2022;" horiz-adv-x="308" 
d="M252 350q0 -41 -28.5 -69.5t-69.5 -28.5t-69.5 28.5t-28.5 69.5t28.5 69.5t69.5 28.5t69.5 -28.5t28.5 -69.5z" />
    <glyph glyph-name="endash" unicode="&#x2013;" horiz-adv-x="698" 
d="M649 295h-600v42h600v-42z" />
    <glyph glyph-name="emdash" unicode="&#x2014;" horiz-adv-x="969" 
d="M913 169h-871v32h871v-32z" />
    <glyph glyph-name="trademark" unicode="&#x2122;" horiz-adv-x="588" 
d="M546 422h-95v7h28v205l-79 -216h-7l-82 214v-173q0 -12 7 -21t17 -9l3 -7h-63v7h7q10 0 15.5 11t5.5 19v169q0 20 -21 20h-7l1 7h67l69 -180l67 180h67v-7h-27v-219h27v-7zM252 582h-10q-5 34 -16 48q-14 18 -46 18h-13v-219h27v-7h-94v7h27v219h-13q-31 0 -44 -16.5
t-18 -49.5h-10l2 73h206z" />
    <glyph glyph-name="scaron" unicode="&#x161;" horiz-adv-x="521" 
d="M507 148q0 -56 -24 -95q-32 -53 -99 -53h-193v20h34v397h-59q-14 0 -20.5 -13.5t-6.5 -48.5l-4 -165v-34q0 -80 -10 -112q-16 -52 -65 -52q-28 0 -48 16q-23 19 -23 52t15.5 51t35.5 18q17 0 23.5 -7.5t6.5 -20.5q0 -8 -1 -17t-2 -17q0 -13 5.5 -20t22.5 -7q13 0 17.5 31
t4.5 74v40l3 170q0 40 -9 51t-33 11h-13v20h292v-20h-34v-149h22q87 0 129 -42q33 -33 33 -78zM399 111v49q0 54 -18 74q-13 14 -38 14h-20v-228h25q27 0 36 10q15 17 15 81z" />
    <glyph glyph-name="scaron" unicode="&#x459;" horiz-adv-x="521" 
d="M507 148q0 -56 -24 -95q-32 -53 -99 -53h-193v20h34v397h-59q-14 0 -20.5 -13.5t-6.5 -48.5l-4 -165v-34q0 -80 -10 -112q-16 -52 -65 -52q-28 0 -48 16q-23 19 -23 52t15.5 51t35.5 18q17 0 23.5 -7.5t6.5 -20.5q0 -8 -1 -17t-2 -17q0 -13 5.5 -20t22.5 -7q13 0 17.5 31
t4.5 74v40l3 170q0 40 -9 51t-33 11h-13v20h292v-20h-34v-149h22q87 0 129 -42q33 -33 33 -78zM399 111v49q0 54 -18 74q-13 14 -38 14h-20v-228h25q27 0 36 10q15 17 15 81z" />
    <glyph glyph-name="guilsinglright" unicode="&#x203a;" horiz-adv-x="306" 
d="M278 212q-67 -41 -126 -92t-115 -117l-9 8q59 105 138 201q-79 96 -138 201l9 8q53 -65 115 -118q58 -50 126 -91z" />
    <glyph glyph-name="oe" unicode="&#x153;" horiz-adv-x="532" 
d="M518 147q0 -62 -29 -102q-33 -45 -93 -45h-190v20h30v199h-97v-199h29v-20h-162v20h35v397h-35v20h162v-20h-29v-178h97v178h-30v20h162v-20h-34v-149h22q88 0 130 -42q32 -32 32 -79zM410 111v49q0 54 -18 74q-13 14 -38 14h-20v-228h20h11q23 0 32 13q13 19 13 78z" />
    <glyph glyph-name="oe" unicode="&#x45a;" horiz-adv-x="532" 
d="M518 147q0 -62 -29 -102q-33 -45 -93 -45h-190v20h30v199h-97v-199h29v-20h-162v20h35v397h-35v20h162v-20h-29v-178h97v178h-30v20h162v-20h-34v-149h22q88 0 130 -42q32 -32 32 -79zM410 111v49q0 54 -18 74q-13 14 -38 14h-20v-228h20h11q23 0 32 13q13 19 13 78z" />
    <glyph glyph-name="c157" horiz-adv-x="378" 
d="M367 42q-10 -22 -29 -36t-44 -14q-43 0 -58 32q-8 16 -19 85t-13 75q-14 36 -54 36h-12v-200h34v-20h-166v20h34v397h-34v20h166v-20h-34v-177h19q33 0 44.5 19t21.5 97q7 50 22 69.5t44 19.5q31 0 49 -19t18 -47q0 -30 -13 -50.5t-35 -20.5q-33 0 -35 43t-14 43
q-10 0 -14 -11.5t-6 -33.5q-6 -61 -13 -82.5t-23 -31.5l1 -3q45 0 72 -25t34 -78q2 -32 5.5 -65.5t18.5 -33.5q6 0 12 5t11 16z" />
    <glyph glyph-name="c157" unicode="&#x45c;" horiz-adv-x="378" 
d="M367 42q-10 -22 -29 -36t-44 -14q-43 0 -58 32q-8 16 -19 85t-13 75q-14 36 -54 36h-12v-200h34v-20h-166v20h34v397h-34v20h166v-20h-34v-177h19q33 0 44.5 19t21.5 97q7 50 22 69.5t44 19.5q31 0 49 -19t18 -47q0 -30 -13 -50.5t-35 -20.5q-33 0 -35 43t-14 43
q-10 0 -14 -11.5t-6 -33.5q-6 -61 -13 -82.5t-23 -31.5l1 -3q45 0 72 -25t34 -78q2 -32 5.5 -65.5t18.5 -33.5q6 0 12 5t11 16z" />
    <glyph glyph-name="c158" horiz-adv-x="372" 
d="M355 0h-161v20h29v271q0 51 -4 69q-7 32 -31 32q-21 0 -41 -26.5t-20 -67.5v-278h30v-20h-162v20h34v478h-35v20h35v106h-35v20h91q16 0 42 8v-134h132v-20h-132v-130q20 35 44 54q29 23 61 23q49 0 69 -31t20 -91v-303h34v-20z" />
    <glyph glyph-name="c158" unicode="&#x45b;" horiz-adv-x="372" 
d="M355 0h-161v20h29v271q0 51 -4 69q-7 32 -31 32q-21 0 -41 -26.5t-20 -67.5v-278h30v-20h-162v20h34v478h-35v20h35v106h-35v20h91q16 0 42 8v-134h132v-20h-132v-130q20 35 44 54q29 23 61 23q49 0 69 -31t20 -91v-303h34v-20z" />
    <glyph glyph-name="Ydieresis" unicode="&#x178;" horiz-adv-x="396" 
d="M376 0h-135q-16 -28 -24 -57q-12 -43 -12 -105h-14q0 52 -13 100q-7 27 -23 62h-135v20h34v397h-34v20h161v-20h-29v-397h92v397h-29v20h161v-20h-34v-397h34v-20z" />
    <glyph glyph-name="Ydieresis" unicode="&#x45f;" horiz-adv-x="396" 
d="M376 0h-135q-16 -28 -24 -57q-12 -43 -12 -105h-14q0 52 -13 100q-7 27 -23 62h-135v20h34v397h-34v20h161v-20h-29v-397h92v397h-29v20h161v-20h-34v-397h34v-20z" />
    <glyph glyph-name="nonbreakingspace" unicode="&#xa0;" horiz-adv-x="500" 
 />
    <glyph glyph-name="exclamdown" unicode="&#xa1;" horiz-adv-x="410" 
d="M381 776q0 -47 -39 -70q-34 -20 -86 -20q-57 0 -90.5 23.5t-33.5 66.5q0 27 14 41t34 14q17 0 31 -14t14 -38q0 -14 -7.5 -24t-10.5 -13q-6 -8 -6 -12q0 -18 16 -23t40 -5q32 0 44 6.5t12 21.5q0 5 -5 11l-10 12q-10 13 -10 26q0 21 12.5 36.5t32.5 15.5q19 0 33.5 -14
t14.5 -41zM459 633q-34 -11 -50 -34q-10 -15 -20 -45l-114 -382q-36 -117 -65 -148.5t-70 -31.5q-48 0 -80 38t-32 91q0 37 19.5 59t46.5 22q24 0 42 -20t18 -53q0 -19 -7 -33q-10 -23 -34 -32.5t-24 -20.5t13.5 -20t37.5 -9t39 11q24 17 41 66l-190 542h-44v22h217v-22h-53
l131 -377l71 256q5 17 9.5 40.5t4.5 33.5q0 24 -12.5 35.5t-34.5 11.5h-10v22h150v-22z" />
    <glyph glyph-name="exclamdown" unicode="&#x40e;" horiz-adv-x="410" 
d="M381 776q0 -47 -39 -70q-34 -20 -86 -20q-57 0 -90.5 23.5t-33.5 66.5q0 27 14 41t34 14q17 0 31 -14t14 -38q0 -14 -7.5 -24t-10.5 -13q-6 -8 -6 -12q0 -18 16 -23t40 -5q32 0 44 6.5t12 21.5q0 5 -5 11l-10 12q-10 13 -10 26q0 21 12.5 36.5t32.5 15.5q19 0 33.5 -14
t14.5 -41zM459 633q-34 -11 -50 -34q-10 -15 -20 -45l-114 -382q-36 -117 -65 -148.5t-70 -31.5q-48 0 -80 38t-32 91q0 37 19.5 59t46.5 22q24 0 42 -20t18 -53q0 -19 -7 -33q-10 -23 -34 -32.5t-24 -20.5t13.5 -20t37.5 -9t39 11q24 17 41 66l-190 542h-44v22h217v-22h-53
l131 -377l71 256q5 17 9.5 40.5t4.5 33.5q0 24 -12.5 35.5t-34.5 11.5h-10v22h150v-22z" />
    <glyph glyph-name="cent" unicode="&#xa2;" horiz-adv-x="304" 
d="M307 623q0 -45 -30 -77q-36 -39 -99 -39q-62 0 -97 38q-31 33 -31 78q0 31 14.5 45t34.5 14q24 0 37 -21q10 -16 10 -36q0 -7 -5.5 -19.5t-17.5 -23.5q-8 -7 -8 -17q0 -17 18.5 -28t45.5 -11q25 0 44 11t19 28q0 9 -9 16.5t-15.5 20.5t-6.5 23q0 18 11.5 37.5t35.5 19.5
q18 0 33.5 -14.5t15.5 -44.5zM340 417h-6q-18 0 -33.5 -23t-25.5 -61l-88 -345q-28 -110 -56 -153t-72 -43q-38 0 -62.5 27.5t-24.5 70.5q0 35 19.5 54.5t42.5 19.5q19 0 33.5 -15t14.5 -44q0 -14 -6.5 -27.5t-9.5 -19.5q-7 -14 -7 -23q0 -8 7 -13q2 -1 7 -4q17 0 33 19
q24 29 46 100l-145 480h-27v20h170v-20h-38l90 -294l53 208q2 9 3.5 22.5t1.5 27.5q0 15 -12.5 25.5t-31.5 10.5h-10v20h134v-20z" />
    <glyph glyph-name="cent" unicode="&#x45e;" horiz-adv-x="304" 
d="M307 623q0 -45 -30 -77q-36 -39 -99 -39q-62 0 -97 38q-31 33 -31 78q0 31 14.5 45t34.5 14q24 0 37 -21q10 -16 10 -36q0 -7 -5.5 -19.5t-17.5 -23.5q-8 -7 -8 -17q0 -17 18.5 -28t45.5 -11q25 0 44 11t19 28q0 9 -9 16.5t-15.5 20.5t-6.5 23q0 18 11.5 37.5t35.5 19.5
q18 0 33.5 -14.5t15.5 -44.5zM340 417h-6q-18 0 -33.5 -23t-25.5 -61l-88 -345q-28 -110 -56 -153t-72 -43q-38 0 -62.5 27.5t-24.5 70.5q0 35 19.5 54.5t42.5 19.5q19 0 33.5 -15t14.5 -44q0 -14 -6.5 -27.5t-9.5 -19.5q-7 -14 -7 -23q0 -8 7 -13q2 -1 7 -4q17 0 33 19
q24 29 46 100l-145 480h-27v20h170v-20h-38l90 -294l53 208q2 9 3.5 22.5t1.5 27.5q0 15 -12.5 25.5t-31.5 10.5h-10v20h134v-20z" />
    <glyph glyph-name="sterling" unicode="&#xa3;" horiz-adv-x="361" 
d="M340 633h-59v-380q0 -136 -22 -188q-31 -73 -121 -73q-60 0 -94 41q-30 36 -30 86q0 41 19.5 65.5t44.5 24.5q24 0 42.5 -22.5t18.5 -64.5q0 -21 -13 -42t-33.5 -23.5t-20.5 -14.5q0 -9 14.5 -18.5t31.5 -9.5q38 0 49 37q6 20 6 66v516h-59v22h226v-22z" />
    <glyph glyph-name="sterling" unicode="&#x408;" horiz-adv-x="361" 
d="M340 633h-59v-380q0 -136 -22 -188q-31 -73 -121 -73q-60 0 -94 41q-30 36 -30 86q0 41 19.5 65.5t44.5 24.5q24 0 42.5 -22.5t18.5 -64.5q0 -21 -13 -42t-33.5 -23.5t-20.5 -14.5q0 -9 14.5 -18.5t31.5 -9.5q38 0 49 37q6 20 6 66v516h-59v22h226v-22z" />
    <glyph glyph-name="currency" unicode="&#xa4;" horiz-adv-x="774" 
d="M704 68l-40 -40l-100 101q-27 -23 -60 -38q-56 -26 -117 -26q-62 0 -116 25q-33 15 -61 39l-100 -101l-40 40l101 100q-23 27 -38 60q-26 56 -26 117q0 62 25 116q15 33 39 61l-101 100l40 40l100 -101q27 23 60 38q56 26 117 26q62 0 116 -25q33 -15 61 -39l100 101
l40 -40l-101 -100q23 -27 38 -60q26 -56 26 -117q0 -62 -25 -116q-15 -33 -39 -61zM611 345q0 95 -65.5 162.5t-158.5 67.5t-158.5 -67.5t-65.5 -162.5t65.5 -162.5t158.5 -67.5t158.5 67.5t65.5 162.5z" />
    <glyph glyph-name="yen" unicode="&#xa5;" horiz-adv-x="396" 
d="M392 583h-19q-5 32 -25 43q-13 7 -36 7h-103v-611h59v-22h-226v22h59v611h-59v22h229q34 0 48 14q21 22 53 113h20v-199z" />
    <glyph glyph-name="yen" unicode="&#x490;" horiz-adv-x="396" 
d="M392 583h-19q-5 32 -25 43q-13 7 -36 7h-103v-611h59v-22h-226v22h59v611h-59v22h229q34 0 48 14q21 22 53 113h20v-199z" />
    <glyph glyph-name="brokenbar" unicode="&#xa6;" horiz-adv-x="322" 
d="M210 381q0 -20 -13 -36q-16 -20 -43 -20q-24 0 -40 16t-16 40q0 26 18 41t38 15q23 0 39.5 -16.5t16.5 -39.5zM210 45q0 -26 -18 -41t-38 -15q-23 0 -39.5 16.5t-16.5 39.5t16.5 39.5t39.5 16.5q20 0 38 -14.5t18 -41.5z" />
    <glyph glyph-name="section" unicode="&#xa7;" horiz-adv-x="448" 
d="M392 249q0 -41 -17.5 -84.5t-50.5 -83.5q23 -28 30.5 -59.5t7.5 -75.5q0 -83 -49 -128q-42 -39 -100 -39q-51 0 -93 30q-52 37 -52 101q0 45 24 66q18 16 44 16q21 0 37 -18.5t16 -51.5q0 -13 -2 -19.5t-3 -9.5q-6 -16 -21.5 -29.5t-15.5 -26.5q0 -14 18 -25t45 -11
q38 0 65.5 23.5t27.5 62.5q0 49 -25 80q-6 7 -119 82q-41 27 -65 62q-38 56 -38 135q0 63 30 114q16 28 45 55q-16 22 -25 49.5t-9 58.5q0 74 42.5 122.5t106.5 48.5q70 0 106 -47q29 -38 29 -91q0 -23 -11 -42q-17 -29 -49 -29q-27 0 -43.5 20.5t-16.5 53.5q0 30 20 51
q7 7 13.5 14t6.5 18q0 12 -16 21t-37 9q-31 0 -55 -16q-33 -22 -33 -68q0 -49 38 -86q12 -12 80 -57q56 -37 81 -75q33 -50 33 -121zM345 189q0 59 -93 130l-108 82q-38 -34 -44 -78q-1 -5 -1 -15t1 -15q9 -59 104 -129q70 -48 104 -72q21 31 29 54.5t8 42.5z" />
    <glyph glyph-name="dieresis" unicode="&#xa8;" horiz-adv-x="455" 
d="M378 766q0 -51 -52 -51q-25 0 -38.5 13.5t-13.5 37.5q0 32 24 44q12 6 28 6q23 0 37.5 -12.5t14.5 -37.5zM212 766q0 -24 -12.5 -37.5t-38.5 -13.5q-25 0 -38.5 13.5t-13.5 37.5q0 32 24 44q12 6 28 6q24 0 37.5 -12t13.5 -38zM445 217l-7 -217h-410v22h58v611h-58v22
h400l5 -210h-25q-7 73 -32 119q-38 69 -115 69h-67v-262h46q35 0 54 36.5t19 82.5h24v-262h-24q0 74 -26 102q-17 19 -47 19h-46v-327h67q63 0 109 61q41 55 51 134h24z" />
    <glyph glyph-name="dieresis" unicode="&#x401;" horiz-adv-x="455" 
d="M378 766q0 -51 -52 -51q-25 0 -38.5 13.5t-13.5 37.5q0 32 24 44q12 6 28 6q23 0 37.5 -12.5t14.5 -37.5zM212 766q0 -24 -12.5 -37.5t-38.5 -13.5q-25 0 -38.5 13.5t-13.5 37.5q0 32 24 44q12 6 28 6q24 0 37.5 -12t13.5 -38zM445 217l-7 -217h-410v22h58v611h-58v22
h400l5 -210h-25q-7 73 -32 119q-38 69 -115 69h-67v-262h46q35 0 54 36.5t19 82.5h24v-262h-24q0 74 -26 102q-17 19 -47 19h-46v-327h67q63 0 109 61q41 55 51 134h24z" />
    <glyph glyph-name="copyright" unicode="&#xa9;" horiz-adv-x="762" 
d="M720 327q0 -141 -99.5 -239.5t-239.5 -98.5q-141 0 -240 99t-99 239q0 141 99 240t240 99q140 0 239.5 -98.5t99.5 -240.5zM692 327q0 129 -91 220t-220 91t-220 -91t-91 -220q0 -128 91 -219t220 -91t220 90t91 220zM524 260l-5 -137h-17q0 19 -11 19q-13 0 -24 -8
q-24 -18 -82 -18q-100 0 -152 67q-43 55 -43 135q0 86 45 148q52 72 143 72q28 0 52 -4q21 -5 42 -9q7 0 11 13h15l6 -132h-17q-5 41 -23 68q-30 45 -86 45q-47 0 -73 -51t-26 -145q0 -109 40 -156q28 -33 67 -33q41 0 75.5 36t45.5 90h17z" />
    <glyph glyph-name="ordfeminine" unicode="&#xaa;" horiz-adv-x="439" 
d="M413 138q0 -55 -39 -97q-46 -49 -120 -49q-102 0 -162 110q-53 98 -53 232q0 157 63 248q56 81 134 81q40 0 60 -13.5t44 -13.5q17 0 24 19h27l9 -205h-25q-19 115 -66 162q-29 29 -65 29q-49 0 -69 -62q-14 -44 -14 -126v-96h188v-22h-188v-69q0 -111 15 -167
q23 -85 85 -85q37 0 53.5 15.5t16.5 36.5q0 12 -9 24.5t-17 23.5q-12 19 -12 37q0 27 16.5 47.5t40.5 20.5t43.5 -20.5t19.5 -60.5z" />
    <glyph glyph-name="ordfeminine" unicode="&#x404;" horiz-adv-x="439" 
d="M413 138q0 -55 -39 -97q-46 -49 -120 -49q-102 0 -162 110q-53 98 -53 232q0 157 63 248q56 81 134 81q40 0 60 -13.5t44 -13.5q17 0 24 19h27l9 -205h-25q-19 115 -66 162q-29 29 -65 29q-49 0 -69 -62q-14 -44 -14 -126v-96h188v-22h-188v-69q0 -111 15 -167
q23 -85 85 -85q37 0 53.5 15.5t16.5 36.5q0 12 -9 24.5t-17 23.5q-12 19 -12 37q0 27 16.5 47.5t40.5 20.5t43.5 -20.5t19.5 -60.5z" />
    <glyph glyph-name="guillemotleft" unicode="&#xab;" horiz-adv-x="442" 
d="M414 68l-13 -5q-37 41 -78.5 76t-91.5 64q97 60 170 140l13 -5q-34 -74 -86 -135q52 -60 86 -135zM322 -46l-11 -9q-67 78 -144 145q-70 60 -153 113q81 51 153 112q76 65 144 146l11 -10q-73 -133 -171 -248q99 -117 171 -249z" />
    <glyph glyph-name="logicalnot" unicode="&#xac;" horiz-adv-x="751" 
d="M709 98h-46v150h-621v42h667v-192z" />
    <glyph glyph-name="minus" unicode="&#xad;" horiz-adv-x="336" 
d="M56 210v45h210v-45h-210z" />
    <glyph glyph-name="registered" unicode="&#xae;" horiz-adv-x="770" 
d="M725 328q0 -141 -99.5 -240.5t-240.5 -99.5q-140 0 -240 99t-100 241q0 140 100 240t240 100t240 -100t100 -240zM696 328q0 129 -90 220t-221 91q-127 0 -219 -91t-92 -220t91 -220t220 -91q131 0 221 91t90 220zM578 165q-19 -20 -32 -25t-34 -5q-47 0 -61 23
q-10 17 -16.5 80.5t-20 78t-47.5 14.5h-37v-179h43v-11h-167v11h44v348h-44v11h162q65 0 101 -11q62 -19 62 -71q0 -30 -19 -50q-29 -31 -97 -40q54 -15 75 -33t25.5 -56t7.5 -66.5t16 -28.5q5 0 15 7.5t15 12.5zM443 429q0 40 -17.5 55.5t-60.5 15.5h-35v-158h31
q35 0 53 12q29 20 29 75z" />
    <glyph glyph-name="macron" unicode="&#xaf;" horiz-adv-x="318" 
d="M297 766q0 -51 -52 -51q-25 0 -38.5 13.5t-13.5 37.5q0 32 24 44q12 6 28 6q23 0 37.5 -12.5t14.5 -37.5zM131 766q0 -24 -12.5 -37.5t-38.5 -13.5q-25 0 -38.5 13.5t-13.5 37.5q0 32 24 44q12 6 28 6q24 0 37.5 -12t13.5 -38zM275 0h-226v22h59v611h-59v22h226v-22h-59
v-611h59v-22z" />
    <glyph glyph-name="macron" unicode="&#x407;" horiz-adv-x="318" 
d="M297 766q0 -51 -52 -51q-25 0 -38.5 13.5t-13.5 37.5q0 32 24 44q12 6 28 6q23 0 37.5 -12.5t14.5 -37.5zM131 766q0 -24 -12.5 -37.5t-38.5 -13.5q-25 0 -38.5 13.5t-13.5 37.5q0 32 24 44q12 6 28 6q24 0 37.5 -12t13.5 -38zM275 0h-226v22h59v611h-59v22h226v-22h-59
v-611h59v-22z" />
    <glyph glyph-name="degree" unicode="&#xb0;" horiz-adv-x="308" 
d="M252 578q0 -41 -28.5 -69.5t-69.5 -28.5t-69.5 28.5t-28.5 69.5t28.5 69.5t69.5 28.5t69.5 -28.5t28.5 -69.5zM213 578q0 24 -17.5 41.5t-41.5 17.5t-41.5 -17.5t-17.5 -41.5t17.5 -41.5t41.5 -17.5t41.5 17.5t17.5 41.5z" />
    <glyph glyph-name="plusminus" unicode="&#xb1;" horiz-adv-x="672" 
d="M602 326h-244v-151h-42v151h-246v43h246v194h42v-194h244v-43zM602 58h-532v41h532v-41z" />
    <glyph glyph-name="twosuperior" unicode="&#xb2;" horiz-adv-x="275" 
d="M254 0h-226v22h59v611h-59v22h226v-22h-59v-611h59v-22z" />
    <glyph glyph-name="twosuperior" unicode="&#x406;" horiz-adv-x="275" 
d="M254 0h-226v22h59v611h-59v22h226v-22h-59v-611h59v-22z" />
    <glyph glyph-name="threesuperior" unicode="&#xb3;" horiz-adv-x="191" 
d="M138 588q0 -24 -15 -41t-35 -17q-18 0 -33 14q-18 17 -18 44q0 24 14.5 40.5t36.5 16.5q20 0 35 -16t15 -41zM174 0h-167v20h35v397h-36v20h75q14 0 24 1t35 7v-425h34v-20z" />
    <glyph glyph-name="threesuperior" unicode="&#x456;" horiz-adv-x="191" 
d="M138 588q0 -24 -15 -41t-35 -17q-18 0 -33 14q-18 17 -18 44q0 24 14.5 40.5t36.5 16.5q20 0 35 -16t15 -41zM174 0h-167v20h35v397h-36v20h75q14 0 24 1t35 7v-425h34v-20z" />
    <glyph glyph-name="acute" unicode="&#xb4;" horiz-adv-x="282" 
d="M274 417h-135v-397h40v-20h-173v20h35v397h-35v20h133q45 0 69 22q38 34 49 128h17v-170z" />
    <glyph glyph-name="acute" unicode="&#x491;" horiz-adv-x="282" 
d="M274 417h-135v-397h40v-20h-173v20h35v397h-35v20h133q45 0 69 22q38 34 49 128h17v-170z" />
    <glyph glyph-name="mu" unicode="&#xb5;" horiz-adv-x="393" 
d="M376 45q-18 -29 -38.5 -41t-46.5 -12t-43 20.5t-20 46.5q-18 -36 -36.5 -51.5t-37.5 -15.5q-20 0 -38 9t-30 31h-8q9 -36 21 -100.5t12 -87.5q0 -39 -18 -56q-14 -14 -39 -14q-21 0 -33 12q-18 18 -18 58q0 10 4.5 42.5t10 70.5t9 76t3.5 86v318h98v-327q0 -36 13 -55
t31 -19q21 0 38.5 28t17.5 63v310h98v-366q0 -17 2 -26t10 -9t18 9q1 1 9 10z" />
    <glyph glyph-name="paragraph" unicode="&#xb6;" horiz-adv-x="469" 
d="M399 -213h-50v868h50v-868zM259 -213h-50v529q-81 0 -131 56q-44 49 -44 113t44 113q51 57 131 57h50v-868z" />
    <glyph glyph-name="periodcentered" unicode="&#x2219;" horiz-adv-x="238" 
d="M168 346q0 -20 -13 -36q-16 -20 -43 -20q-26 0 -41 18t-15 38q0 23 16.5 39.5t39.5 16.5t39.5 -16.5t16.5 -39.5z" />
    <glyph glyph-name="cedilla" unicode="&#xb8;" horiz-adv-x="328" 
d="M283 588q0 -24 -15 -41t-36 -17q-20 0 -35 17t-15 41q0 22 13 39.5t37 17.5q21 0 36 -16t15 -41zM132 588q0 -24 -15 -41t-35 -17q-21 0 -36 17t-15 41t14.5 40.5t36.5 16.5q23 0 36.5 -18t13.5 -39zM306 235h-190v-91q0 -60 10 -89q15 -43 55 -43q36 0 68 36
q23 25 38 61l13 -7q-22 -51 -48 -77q-32 -33 -74 -33q-69 0 -119.5 66t-50.5 161q0 90 45 158t103 68q55 0 99 -51q51 -60 51 -159zM209 255v46q0 74 -12 99t-36 25q-26 0 -35.5 -23t-9.5 -61v-86h93z" />
    <glyph glyph-name="cedilla" unicode="&#x451;" horiz-adv-x="328" 
d="M283 588q0 -24 -15 -41t-36 -17q-20 0 -35 17t-15 41q0 22 13 39.5t37 17.5q21 0 36 -16t15 -41zM132 588q0 -24 -15 -41t-35 -17q-21 0 -36 17t-15 41t14.5 40.5t36.5 16.5q23 0 36.5 -18t13.5 -39zM306 235h-190v-91q0 -60 10 -89q15 -43 55 -43q36 0 68 36
q23 25 38 61l13 -7q-22 -51 -48 -77q-32 -33 -74 -33q-69 0 -119.5 66t-50.5 161q0 90 45 158t103 68q55 0 99 -51q51 -60 51 -159zM209 255v46q0 74 -12 99t-36 25q-26 0 -35.5 -23t-9.5 -61v-86h93z" />
    <glyph glyph-name="onesuperior" unicode="&#xb9;" horiz-adv-x="823" 
d="M793 261q0 -79 -34.5 -136t-84.5 -57q-44 0 -79 48q-40 54 -40 139q0 74 35.5 126.5t82.5 52.5q49 0 84.5 -49.5t35.5 -123.5zM795 0h-239v35h239v-35zM678 558q0 -36 -17.5 -54.5t-42.5 -18.5q-23 0 -37 19t-14 47q0 21 13 41q6 8 9.5 13t3.5 11q0 10 -5 17.5t-18 7.5
q-19 0 -31 -18q-20 -30 -20 -98v-533h-39l-255 585v-445q0 -72 -20.5 -106t-70.5 -34q-45 0 -68.5 30t-23.5 67q0 38 15.5 59.5t40.5 21.5q23 0 38 -18t15 -49q0 -10 -1.5 -15t-9 -16.5t-10.5 -16.5q-7 -11 -7 -18q0 -23 32 -23q27 0 38 43q7 28 7 72v431q0 47 -17 63
q-11 10 -33 10h-12v22h172l187 -417v311q0 46 17 75q23 39 71 39t73 -37q20 -29 20 -68zM708 143v218q0 28 -9.5 41t-24.5 13q-20 0 -27 -15t-7 -40v-217q0 -31 12 -45q9 -11 23 -11q20 0 28 21q5 13 5 35z" />
    <glyph glyph-name="onesuperior" unicode="&#x2116;" horiz-adv-x="823" 
d="M793 261q0 -79 -34.5 -136t-84.5 -57q-44 0 -79 48q-40 54 -40 139q0 74 35.5 126.5t82.5 52.5q49 0 84.5 -49.5t35.5 -123.5zM795 0h-239v35h239v-35zM678 558q0 -36 -17.5 -54.5t-42.5 -18.5q-23 0 -37 19t-14 47q0 21 13 41q6 8 9.5 13t3.5 11q0 10 -5 17.5t-18 7.5
q-19 0 -31 -18q-20 -30 -20 -98v-533h-39l-255 585v-445q0 -72 -20.5 -106t-70.5 -34q-45 0 -68.5 30t-23.5 67q0 38 15.5 59.5t40.5 21.5q23 0 38 -18t15 -49q0 -10 -1.5 -15t-9 -16.5t-10.5 -16.5q-7 -11 -7 -18q0 -23 32 -23q27 0 38 43q7 28 7 72v431q0 47 -17 63
q-11 10 -33 10h-12v22h172l187 -417v311q0 46 17 75q23 39 71 39t73 -37q20 -29 20 -68zM708 143v218q0 28 -9.5 41t-24.5 13q-20 0 -27 -15t-7 -40v-217q0 -31 12 -45q9 -11 23 -11q20 0 28 21q5 13 5 35z" />
    <glyph glyph-name="ordmasculine" unicode="&#xba;" horiz-adv-x="311" 
d="M294 105q0 -52 -39 -84q-35 -29 -83 -29q-76 0 -123 79q-41 69 -41 151q0 89 42.5 156t107.5 67q18 0 37.5 -4t36.5 -13l13 -4q12 0 12 14h16l5 -159h-19q-11 71 -24 100q-21 46 -63 46q-38 0 -49 -39q-7 -25 -7 -96v-51h102v-20h-102v-80q0 -58 10 -85q15 -42 58 -42
q17 0 28.5 8t11.5 20q0 7 -4 13l-10 10l-14 14q-11 14 -11 37q0 27 14.5 44.5t36.5 17.5q24 0 41 -20.5t17 -50.5z" />
    <glyph glyph-name="ordmasculine" unicode="&#x454;" horiz-adv-x="311" 
d="M294 105q0 -52 -39 -84q-35 -29 -83 -29q-76 0 -123 79q-41 69 -41 151q0 89 42.5 156t107.5 67q18 0 37.5 -4t36.5 -13l13 -4q12 0 12 14h16l5 -159h-19q-11 71 -24 100q-21 46 -63 46q-38 0 -49 -39q-7 -25 -7 -96v-51h102v-20h-102v-80q0 -58 10 -85q15 -42 58 -42
q17 0 28.5 8t11.5 20q0 7 -4 13l-10 10l-14 14q-11 14 -11 37q0 27 14.5 44.5t36.5 17.5q24 0 41 -20.5t17 -50.5z" />
    <glyph glyph-name="guillemotright" unicode="&#xbb;" horiz-adv-x="442" 
d="M414 203q-81 -52 -153 -113q-76 -65 -144 -145l-11 9q72 132 171 249q-98 115 -171 248l11 10q66 -79 144 -146q70 -60 153 -112zM197 203q-50 -29 -91 -63t-79 -77l-13 5q34 75 86 135q-52 61 -86 135l13 5q36 -40 77 -74t93 -66z" />
    <glyph glyph-name="onequarter" unicode="&#xbc;" horiz-adv-x="205" 
d="M142 588q0 -27 -15.5 -42.5t-34.5 -15.5q-20 0 -35 17t-15 41q0 22 13 39.5t37 17.5q21 0 35.5 -14t14.5 -43zM149 46q0 -115 -26 -174q-32 -73 -104 -73q-41 0 -65 25t-24 66q0 35 15 54t37 19q20 0 35 -19t15 -39l-3 -16q-14 -24 -27 -49q0 -8 6 -14t14 -6q25 0 31 45
q3 22 3 44l-2 32l-3 67v409h-45v20h84q22 0 33.5 2t25.5 6v-399z" />
    <glyph glyph-name="onequarter" unicode="&#x458;" horiz-adv-x="205" 
d="M142 588q0 -27 -15.5 -42.5t-34.5 -15.5q-20 0 -35 17t-15 41q0 22 13 39.5t37 17.5q21 0 35.5 -14t14.5 -43zM149 46q0 -115 -26 -174q-32 -73 -104 -73q-41 0 -65 25t-24 66q0 35 15 54t37 19q20 0 35 -19t15 -39l-3 -16q-14 -24 -27 -49q0 -8 6 -14t14 -6q25 0 31 45
q3 22 3 44l-2 32l-3 67v409h-45v20h84q22 0 33.5 2t25.5 6v-399z" />
    <glyph glyph-name="onehalf" unicode="&#xbd;" horiz-adv-x="410" 
d="M389 196q0 -74 -34 -130q-45 -74 -132 -74q-44 0 -54 15t-61 15q-16 0 -24.5 -5.5t-11.5 -16.5h-30v233h21q12 -77 47 -138q47 -81 111 -81l24 2q33 4 55.5 33t22.5 78q0 55 -29 89q-16 19 -56 41l-83 46q-57 32 -81 88q-17 40 -17 94q0 87 48 136q42 42 99 42
q27 0 49 -10q30 -14 41 -16h11q6 1 9 4q7 6 13 14h31v-186h-22q-5 20 -11.5 41t-10.5 31q-25 60 -59 84q-23 16 -49 16q-35 0 -57 -15q-30 -20 -30 -65q0 -51 21 -81q16 -22 48 -40l91 -50q50 -30 80 -80t30 -114z" />
    <glyph glyph-name="onehalf" unicode="&#x405;" horiz-adv-x="410" 
d="M389 196q0 -74 -34 -130q-45 -74 -132 -74q-44 0 -54 15t-61 15q-16 0 -24.5 -5.5t-11.5 -16.5h-30v233h21q12 -77 47 -138q47 -81 111 -81l24 2q33 4 55.5 33t22.5 78q0 55 -29 89q-16 19 -56 41l-83 46q-57 32 -81 88q-17 40 -17 94q0 87 48 136q42 42 99 42
q27 0 49 -10q30 -14 41 -16h11q6 1 9 4q7 6 13 14h31v-186h-22q-5 20 -11.5 41t-10.5 31q-25 60 -59 84q-23 16 -49 16q-35 0 -57 -15q-30 -20 -30 -65q0 -51 21 -81q16 -22 48 -40l91 -50q50 -30 80 -80t30 -114z" />
    <glyph glyph-name="threequarters" unicode="&#xbe;" horiz-adv-x="295" 
d="M273 140q0 -65 -33.5 -106.5t-89.5 -41.5q-26 0 -44 8q-21 12 -32 18t-15 6q-20 0 -20 -25h-17v166h21q0 -58 32.5 -105.5t76.5 -47.5q28 0 46.5 16.5t18.5 49.5q0 37 -20 58q-13 14 -42 26l-53 22q-46 19 -64 59q-13 28 -13 67q0 61 30.5 98t84.5 37q28 0 46 -7
q17 -9 35 -17q16 0 19 17h13v-129h-17q-4 50 -31.5 83t-64.5 33q-25 0 -43.5 -12t-18.5 -36q0 -25 8 -41q13 -26 45 -38l58 -22q49 -18 70 -63q14 -30 14 -73z" />
    <glyph glyph-name="threequarters" unicode="&#x455;" horiz-adv-x="295" 
d="M273 140q0 -65 -33.5 -106.5t-89.5 -41.5q-26 0 -44 8q-21 12 -32 18t-15 6q-20 0 -20 -25h-17v166h21q0 -58 32.5 -105.5t76.5 -47.5q28 0 46.5 16.5t18.5 49.5q0 37 -20 58q-13 14 -42 26l-53 22q-46 19 -64 59q-13 28 -13 67q0 61 30.5 98t84.5 37q28 0 46 -7
q17 -9 35 -17q16 0 19 17h13v-129h-17q-4 50 -31.5 83t-64.5 33q-25 0 -43.5 -12t-18.5 -36q0 -25 8 -41q13 -26 45 -38l58 -22q49 -18 70 -63q14 -30 14 -73z" />
    <glyph glyph-name="questiondown" unicode="&#xbf;" horiz-adv-x="275" 
d="M258 580q0 -24 -15 -41t-36 -17q-20 0 -35 17t-15 41q0 22 13 39.5t37 17.5q21 0 36 -16t15 -41zM107 580q0 -24 -15 -41t-35 -17q-21 0 -36 17t-15 41t14.5 40.5t36.5 16.5q23 0 36.5 -18t13.5 -39zM213 0h-167v20h35v397h-36v20h75q14 0 24 1t35 7v-425h34v-20z" />
    <glyph glyph-name="questiondown" unicode="&#x457;" horiz-adv-x="275" 
d="M258 580q0 -24 -15 -41t-36 -17q-20 0 -35 17t-15 41q0 22 13 39.5t37 17.5q21 0 36 -16t15 -41zM107 580q0 -24 -15 -41t-35 -17q-21 0 -36 17t-15 41t14.5 40.5t36.5 16.5q23 0 36.5 -18t13.5 -39zM213 0h-167v20h35v397h-36v20h75q14 0 24 1t35 7v-425h34v-20z" />
    <glyph glyph-name="Agrave" unicode="&#xc0;" horiz-adv-x="399" 
d="M434 0h-212v22h57l-45 169h-146l-11 -43l-9 -50q-2 -16 -2 -25q0 -5 2 -15q6 -20 19.5 -26.5t43.5 -9.5v-22h-159v22q35 0 53 34q8 14 24 78l135 529h46l162 -641h42v-22zM231 213l-69 272l-70 -272h139z" />
    <glyph glyph-name="Agrave" unicode="&#x410;" horiz-adv-x="399" 
d="M434 0h-212v22h57l-45 169h-146l-11 -43l-9 -50q-2 -16 -2 -25q0 -5 2 -15q6 -20 19.5 -26.5t43.5 -9.5v-22h-159v22q35 0 53 34q8 14 24 78l135 529h46l162 -641h42v-22zM231 213l-69 272l-70 -272h139z" />
    <glyph glyph-name="Aacute" unicode="&#xc1;" horiz-adv-x="473" 
d="M441 181q0 -103 -58 -147q-45 -34 -125 -34h-230v22h58v611h-58v22h378l6 -198h-25q-11 96 -30 130q-26 46 -91 46h-72v-253l51 -1q107 0 158 -70q38 -52 38 -128zM319 150v85q0 77 -33 105q-20 17 -56 17h-36v-335h40q34 0 52 16q33 30 33 112z" />
    <glyph glyph-name="Aacute" unicode="&#x411;" horiz-adv-x="473" 
d="M441 181q0 -103 -58 -147q-45 -34 -125 -34h-230v22h58v611h-58v22h378l6 -198h-25q-11 96 -30 130q-26 46 -91 46h-72v-253l51 -1q107 0 158 -70q38 -52 38 -128zM319 150v85q0 77 -33 105q-20 17 -56 17h-36v-335h40q34 0 52 16q33 30 33 112z" />
    <glyph glyph-name="Acircumflex" unicode="&#xc2;" horiz-adv-x="480" 
d="M462 186q0 -86 -57 -136t-150 -50h-227v22h58v611h-58v22h223q106 0 155 -40q42 -35 42 -98t-37.5 -99t-110.5 -53l1 -5q97 -27 135 -82q26 -38 26 -92zM328 474v67q0 25 -3 37q-14 55 -76 55h-55v-256h50q38 0 61 24t23 73zM340 149v69q0 57 -13 87q-22 50 -79 50h-54
v-333h45q64 0 86 39q15 27 15 88z" />
    <glyph glyph-name="Acircumflex" unicode="&#x412;" horiz-adv-x="480" 
d="M462 186q0 -86 -57 -136t-150 -50h-227v22h58v611h-58v22h223q106 0 155 -40q42 -35 42 -98t-37.5 -99t-110.5 -53l1 -5q97 -27 135 -82q26 -38 26 -92zM328 474v67q0 25 -3 37q-14 55 -76 55h-55v-256h50q38 0 61 24t23 73zM340 149v69q0 57 -13 87q-22 50 -79 50h-54
v-333h45q64 0 86 39q15 27 15 88z" />
    <glyph glyph-name="Atilde" unicode="&#xc3;" horiz-adv-x="392" 
d="M406 445h-25q-20 118 -49.5 153t-78.5 35h-58v-611h72v-22h-239v22h59v611h-59v22h374z" />
    <glyph glyph-name="Atilde" unicode="&#x413;" horiz-adv-x="392" 
d="M406 445h-25q-20 118 -49.5 153t-78.5 35h-58v-611h72v-22h-239v22h59v611h-59v22h374z" />
    <glyph glyph-name="Adieresis" unicode="&#xc4;" horiz-adv-x="478" 
d="M479 -189h-28q-15 116 -69 161q-33 28 -82 28h-145q-50 0 -76 -27q-42 -43 -57 -162h-28l8 211h62q23 41 34.5 84t11.5 107l9 260v35t1 34q0 48 -9 66q-13 26 -48 26q-9 0 -14 -1v22h407v-22h-58v-611h74zM290 22v611h-76q-43 0 -53 -13q-16 -20 -16 -104l-12 -303
q0 -73 -13 -121q-9 -32 -29 -70h199z" />
    <glyph glyph-name="Adieresis" unicode="&#x414;" horiz-adv-x="478" 
d="M479 -189h-28q-15 116 -69 161q-33 28 -82 28h-145q-50 0 -76 -27q-42 -43 -57 -162h-28l8 211h62q23 41 34.5 84t11.5 107l9 260v35t1 34q0 48 -9 66q-13 26 -48 26q-9 0 -14 -1v22h407v-22h-58v-611h74zM290 22v611h-76q-43 0 -53 -13q-16 -20 -16 -104l-12 -303
q0 -73 -13 -121q-9 -32 -29 -70h199z" />
    <glyph glyph-name="Aring" unicode="&#xc5;" horiz-adv-x="455" 
d="M445 217l-7 -217h-410v22h58v611h-58v22h400l5 -210h-25q-7 73 -32 119q-38 69 -115 69h-67v-262h46q35 0 54 36.5t19 82.5h24v-262h-24q0 74 -26 102q-17 19 -47 19h-46v-327h67q63 0 109 61q41 55 51 134h24z" />
    <glyph glyph-name="Aring" unicode="&#x415;" horiz-adv-x="455" 
d="M445 217l-7 -217h-410v22h58v611h-58v22h400l5 -210h-25q-7 73 -32 119q-38 69 -115 69h-67v-262h46q35 0 54 36.5t19 82.5h24v-262h-24q0 74 -26 102q-17 19 -47 19h-46v-327h67q63 0 109 61q41 55 51 134h24z" />
    <glyph glyph-name="AE" unicode="&#xc6;" horiz-adv-x="737" 
d="M719 22q-33 -30 -75 -30q-61 0 -84 51q-16 36 -16 118q0 107 -20.5 139t-64.5 32h-33v-310h59v-22h-226v22h59v310h-33q-41 0 -61 -30q-24 -36 -24 -141q0 -80 -16 -117q-23 -52 -84 -52q-20 0 -39 7.5t-36 22.5l7 17q9 -9 17 -9q21 0 29 21.5t8 57.5q0 11 -1 31t-1 28
q0 66 25 110q37 65 123 74q-18 14 -27 39t-9 79q0 67 -4 94q-8 54 -31 54q-11 0 -11 -18q0 -6 2 -12.5t3.5 -11.5t1.5 -23q0 -27 -16 -42t-40 -15q-32 0 -49 29q-13 23 -13 53q0 33 22.5 59t60.5 26q54 0 77 -46q19 -38 19 -108q0 -101 12 -128t61 -27h27v279h-59v22h226
v-22h-59v-279h27q49 0 61 27.5t12 127.5q0 69 19 107q24 47 77 47q37 0 60 -26t23 -59q0 -29 -13 -52q-17 -30 -49 -30q-23 0 -39.5 15.5t-16.5 41.5q0 18 1 23t3.5 13t2.5 11q0 18 -11 18q-22 0 -28.5 -43.5t-6.5 -104.5q0 -55 -8.5 -79t-27.5 -39q86 -9 123 -74
q25 -44 25 -110q0 -8 -1 -29t-1 -32q0 -37 7.5 -57t29.5 -20q8 0 17 9z" />
    <glyph glyph-name="AE" unicode="&#x416;" horiz-adv-x="737" 
d="M719 22q-33 -30 -75 -30q-61 0 -84 51q-16 36 -16 118q0 107 -20.5 139t-64.5 32h-33v-310h59v-22h-226v22h59v310h-33q-41 0 -61 -30q-24 -36 -24 -141q0 -80 -16 -117q-23 -52 -84 -52q-20 0 -39 7.5t-36 22.5l7 17q9 -9 17 -9q21 0 29 21.5t8 57.5q0 11 -1 31t-1 28
q0 66 25 110q37 65 123 74q-18 14 -27 39t-9 79q0 67 -4 94q-8 54 -31 54q-11 0 -11 -18q0 -6 2 -12.5t3.5 -11.5t1.5 -23q0 -27 -16 -42t-40 -15q-32 0 -49 29q-13 23 -13 53q0 33 22.5 59t60.5 26q54 0 77 -46q19 -38 19 -108q0 -101 12 -128t61 -27h27v279h-59v22h226
v-22h-59v-279h27q49 0 61 27.5t12 127.5q0 69 19 107q24 47 77 47q37 0 60 -26t23 -59q0 -29 -13 -52q-17 -30 -49 -30q-23 0 -39.5 15.5t-16.5 41.5q0 18 1 23t3.5 13t2.5 11q0 18 -11 18q-22 0 -28.5 -43.5t-6.5 -104.5q0 -55 -8.5 -79t-27.5 -39q86 -9 123 -74
q25 -44 25 -110q0 -8 -1 -29t-1 -32q0 -37 7.5 -57t29.5 -20q8 0 17 9z" />
    <glyph glyph-name="Ccedilla" unicode="&#xc7;" horiz-adv-x="425" 
d="M407 182q0 -75 -40 -124q-54 -66 -167 -66q-73 0 -121 45t-48 117q0 43 19.5 65.5t47.5 22.5q25 0 42 -21t17 -54q0 -16 -6.5 -28t-16.5 -21q-16 -11 -23 -17q-14 -12 -14 -25q0 -22 24 -40q30 -22 79 -22q52 0 72 50q13 32 13 91v61q0 63 -17 96q-21 42 -71 42h-55v22
h63q34 0 52.5 27.5t18.5 76.5v57q0 55 -18 79.5t-48 24.5q-59 0 -93 -60q-22 -39 -38 -121h-20l10 195h16q2 -9 3 -10q5 -7 15 -7q35 0 52 12.5t70 12.5q72 0 121 -37.5t49 -103.5q0 -63 -31.5 -97t-105.5 -57v-9q64 -16 104 -59q45 -48 45 -118z" />
    <glyph glyph-name="Ccedilla" unicode="&#x417;" horiz-adv-x="425" 
d="M407 182q0 -75 -40 -124q-54 -66 -167 -66q-73 0 -121 45t-48 117q0 43 19.5 65.5t47.5 22.5q25 0 42 -21t17 -54q0 -16 -6.5 -28t-16.5 -21q-16 -11 -23 -17q-14 -12 -14 -25q0 -22 24 -40q30 -22 79 -22q52 0 72 50q13 32 13 91v61q0 63 -17 96q-21 42 -71 42h-55v22
h63q34 0 52.5 27.5t18.5 76.5v57q0 55 -18 79.5t-48 24.5q-59 0 -93 -60q-22 -39 -38 -121h-20l10 195h16q2 -9 3 -10q5 -7 15 -7q35 0 52 12.5t70 12.5q72 0 121 -37.5t49 -103.5q0 -63 -31.5 -97t-105.5 -57v-9q64 -16 104 -59q45 -48 45 -118z" />
    <glyph glyph-name="Egrave" unicode="&#xc8;" horiz-adv-x="546" 
d="M525 0h-216v22h49v495l-163 -454v-41h49v-22h-216v22h59v611h-59v22h216v-22h-49v-498l163 452v46h-49v22h216v-22h-59v-611h59v-22z" />
    <glyph glyph-name="Egrave" unicode="&#x418;" horiz-adv-x="546" 
d="M525 0h-216v22h49v495l-163 -454v-41h49v-22h-216v22h59v611h-59v22h216v-22h-49v-498l163 452v46h-49v22h216v-22h-59v-611h59v-22z" />
    <glyph glyph-name="Eacute" unicode="&#xc9;" horiz-adv-x="546" 
d="M402 776q0 -47 -39 -70q-34 -20 -86 -20q-57 0 -90.5 23.5t-33.5 66.5q0 27 14 41t34 14q17 0 31 -14t14 -38q0 -14 -7.5 -24t-10.5 -13q-6 -8 -6 -12q0 -18 16 -23t40 -5q32 0 44 6.5t12 21.5q0 5 -5 11l-10 12q-10 13 -10 26q0 21 12.5 36.5t32.5 15.5q19 0 33.5 -14
t14.5 -41zM525 0h-216v22h49v495l-163 -454v-41h49v-22h-216v22h59v611h-59v22h216v-22h-49v-498l163 452v46h-49v22h216v-22h-59v-611h59v-22z" />
    <glyph glyph-name="Eacute" unicode="&#x419;" horiz-adv-x="546" 
d="M402 776q0 -47 -39 -70q-34 -20 -86 -20q-57 0 -90.5 23.5t-33.5 66.5q0 27 14 41t34 14q17 0 31 -14t14 -38q0 -14 -7.5 -24t-10.5 -13q-6 -8 -6 -12q0 -18 16 -23t40 -5q32 0 44 6.5t12 21.5q0 5 -5 11l-10 12q-10 13 -10 26q0 21 12.5 36.5t32.5 15.5q19 0 33.5 -14
t14.5 -41zM525 0h-216v22h49v495l-163 -454v-41h49v-22h-216v22h59v611h-59v22h216v-22h-49v-498l163 452v46h-49v22h216v-22h-59v-611h59v-22z" />
    <glyph glyph-name="Ecircumflex" unicode="&#xca;" horiz-adv-x="487" 
d="M497 22q-15 -14 -31.5 -21t-33.5 -9h-20q-53 0 -72.5 41t-19.5 154q0 89 -21.5 117t-61.5 28h-43v-310h59v-22h-225v22h58v611h-58v22h225v-22h-59v-279h37q37 0 52 18q20 24 20 98q0 113 22 153t75 40q42 0 65 -30q18 -24 18 -56q0 -34 -16.5 -57.5t-45.5 -23.5
q-27 0 -42 19t-15 43l1 17l6 26q0 18 -10 18q-22 0 -28.5 -45.5t-6.5 -103.5q0 -51 -8 -76t-28 -41l1 -4q68 0 108 -45q37 -41 37 -114v-41q0 -58 6.5 -89.5t27.5 -31.5q9 0 18 9z" />
    <glyph glyph-name="Ecircumflex" unicode="&#x41a;" horiz-adv-x="487" 
d="M497 22q-15 -14 -31.5 -21t-33.5 -9h-20q-53 0 -72.5 41t-19.5 154q0 89 -21.5 117t-61.5 28h-43v-310h59v-22h-225v22h58v611h-58v22h225v-22h-59v-279h37q37 0 52 18q20 24 20 98q0 113 22 153t75 40q42 0 65 -30q18 -24 18 -56q0 -34 -16.5 -57.5t-45.5 -23.5
q-27 0 -42 19t-15 43l1 17l6 26q0 18 -10 18q-22 0 -28.5 -45.5t-6.5 -103.5q0 -51 -8 -76t-28 -41l1 -4q68 0 108 -45q37 -41 37 -114v-41q0 -58 6.5 -89.5t27.5 -31.5q9 0 18 9z" />
    <glyph glyph-name="Edieresis" unicode="&#xcb;" horiz-adv-x="520" 
d="M499 0h-226v22h59v611h-65q-50 0 -63 -29.5t-13 -115.5q0 -14 -5 -144t-5 -220q0 -51 -13 -83q-20 -49 -70 -49q-41 0 -68 32t-27 79q0 37 19.5 57.5t46.5 20.5q23 0 41 -19.5t18 -54.5q0 -22 -9 -40q-4 -8 -12.5 -19.5t-8.5 -15.5q0 -5 4.5 -11.5t10.5 -6.5q33 0 46 93
q8 59 8 185v83l1 142q0 67 -14.5 91.5t-52.5 24.5h-15v22h413v-22h-59v-611h59v-22z" />
    <glyph glyph-name="Edieresis" unicode="&#x41b;" horiz-adv-x="520" 
d="M499 0h-226v22h59v611h-65q-50 0 -63 -29.5t-13 -115.5q0 -14 -5 -144t-5 -220q0 -51 -13 -83q-20 -49 -70 -49q-41 0 -68 32t-27 79q0 37 19.5 57.5t46.5 20.5q23 0 41 -19.5t18 -54.5q0 -22 -9 -40q-4 -8 -12.5 -19.5t-8.5 -15.5q0 -5 4.5 -11.5t10.5 -6.5q33 0 46 93
q8 59 8 185v83l1 142q0 67 -14.5 91.5t-52.5 24.5h-15v22h413v-22h-59v-611h59v-22z" />
    <glyph glyph-name="Igrave" unicode="&#xcc;" horiz-adv-x="620" 
d="M599 0h-225v22h59v580l-153 -602h-14l-155 602v-452q0 -69 12.5 -98.5t42.5 -29.5v-22h-138v22q35 6 48 39t13 93v380q0 57 -7 72q-11 23 -50 27v22h175l110 -420l109 420h173v-22h-58v-611h58v-22z" />
    <glyph glyph-name="Igrave" unicode="&#x41c;" horiz-adv-x="620" 
d="M599 0h-225v22h59v580l-153 -602h-14l-155 602v-452q0 -69 12.5 -98.5t42.5 -29.5v-22h-138v22q35 6 48 39t13 93v380q0 57 -7 72q-11 23 -50 27v22h175l110 -420l109 420h173v-22h-58v-611h58v-22z" />
    <glyph glyph-name="Iacute" unicode="&#xcd;" horiz-adv-x="544" 
d="M523 0h-215v22h49v313h-163v-313h49v-22h-215v22h58v611h-58v22h215v-22h-49v-276h163v276h-49v22h215v-22h-58v-611h58v-22z" />
    <glyph glyph-name="Iacute" unicode="&#x41d;" horiz-adv-x="544" 
d="M523 0h-215v22h49v313h-163v-313h49v-22h-215v22h58v611h-58v22h215v-22h-49v-276h163v276h-49v22h215v-22h-58v-611h58v-22z" />
    <glyph glyph-name="Icircumflex" unicode="&#xce;" horiz-adv-x="511" 
d="M489 327q0 -141 -68 -238t-163 -97q-89 0 -156 89q-73 97 -73 246q0 148 74 246q68 90 155 90q89 0 157 -90q74 -98 74 -246zM367 219v214q0 94 -24 147q-28 61 -85 61q-64 0 -91 -85q-16 -51 -16 -123v-214q0 -109 32 -161q27 -44 75 -44q62 0 89 66q20 49 20 139z" />
    <glyph glyph-name="Icircumflex" unicode="&#x41e;" horiz-adv-x="511" 
d="M489 327q0 -141 -68 -238t-163 -97q-89 0 -156 89q-73 97 -73 246q0 148 74 246q68 90 155 90q89 0 157 -90q74 -98 74 -246zM367 219v214q0 94 -24 147q-28 61 -85 61q-64 0 -91 -85q-16 -51 -16 -123v-214q0 -109 32 -161q27 -44 75 -44q62 0 89 66q20 49 20 139z" />
    <glyph glyph-name="Idieresis" unicode="&#xcf;" horiz-adv-x="547" 
d="M526 0h-216v22h49v611h-164v-611h49v-22h-216v22h59v611h-59v22h498v-22h-59v-611h59v-22z" />
    <glyph glyph-name="Idieresis" unicode="&#x41f;" horiz-adv-x="547" 
d="M526 0h-216v22h49v611h-164v-611h49v-22h-216v22h59v611h-59v22h498v-22h-59v-611h59v-22z" />
    <glyph glyph-name="Eth" unicode="&#xd0;" horiz-adv-x="468" 
d="M461 475q0 -103 -53 -149t-163 -46h-50v-258h66v-22h-233v22h59v611h-59v22h221q115 0 167 -53q45 -45 45 -127zM339 447v71q0 61 -15 83q-22 32 -87 32h-42v-331h35q59 0 79 20q30 29 30 125z" />
    <glyph glyph-name="Eth" unicode="&#x420;" horiz-adv-x="468" 
d="M461 475q0 -103 -53 -149t-163 -46h-50v-258h66v-22h-233v22h59v611h-59v22h221q115 0 167 -53q45 -45 45 -127zM339 447v71q0 61 -15 83q-22 32 -87 32h-42v-331h35q59 0 79 20q30 29 30 125z" />
    <glyph glyph-name="Ntilde" unicode="&#xd1;" horiz-adv-x="426" 
d="M419 232l-6 -232h-25q-7 18 -14.5 21.5t-15.5 3.5q-9 0 -23 -7t-23.5 -11.5t-24.5 -9.5t-32 -5q-104 0 -170 111q-60 100 -60 231q0 122 61 221q66 108 163 108q23 0 50 -8q8 -2 42 -16q12 -4 17 -4q7 0 14 4.5t10 15.5h26v-211h-20q-13 92 -50.5 144.5t-86.5 52.5
q-55 0 -79.5 -54.5t-24.5 -180.5l-1 -137q0 -138 34 -203q27 -52 70 -52q46 0 85 48q48 59 59 170h25z" />
    <glyph glyph-name="Ntilde" unicode="&#x421;" horiz-adv-x="426" 
d="M419 232l-6 -232h-25q-7 18 -14.5 21.5t-15.5 3.5q-9 0 -23 -7t-23.5 -11.5t-24.5 -9.5t-32 -5q-104 0 -170 111q-60 100 -60 231q0 122 61 221q66 108 163 108q23 0 50 -8q8 -2 42 -16q12 -4 17 -4q7 0 14 4.5t10 15.5h26v-211h-20q-13 92 -50.5 144.5t-86.5 52.5
q-55 0 -79.5 -54.5t-24.5 -180.5l-1 -137q0 -138 34 -203q27 -52 70 -52q46 0 85 48q48 59 59 170h25z" />
    <glyph glyph-name="Ograve" unicode="&#xd2;" horiz-adv-x="447" 
d="M446 443h-26q-9 70 -32 119q-34 71 -88 71h-19v-611h59v-22h-226v22h59v611h-19q-48 0 -78 -50.5t-42 -139.5h-26l5 212h428z" />
    <glyph glyph-name="Ograve" unicode="&#x422;" horiz-adv-x="447" 
d="M446 443h-26q-9 70 -32 119q-34 71 -88 71h-19v-611h59v-22h-226v22h59v611h-19q-48 0 -78 -50.5t-42 -139.5h-26l5 212h428z" />
    <glyph glyph-name="Oacute" unicode="&#xd3;" horiz-adv-x="410" 
d="M459 633q-34 -11 -50 -34q-10 -15 -20 -45l-114 -382q-36 -117 -65 -148.5t-70 -31.5q-48 0 -80 38t-32 91q0 37 19.5 59t46.5 22q24 0 42 -20t18 -53q0 -21 -7.5 -35t-18.5 -23q-1 -1 -24 -12q-15 -7 -15 -16q0 -11 13.5 -20t37.5 -9t39 11q24 17 41 66l-190 542h-44v22
h217v-22h-53l131 -377l71 256q5 17 9.5 40.5t4.5 33.5q0 24 -12.5 35.5t-34.5 11.5h-10v22h150v-22z" />
    <glyph glyph-name="Oacute" unicode="&#x423;" horiz-adv-x="410" 
d="M459 633q-34 -11 -50 -34q-10 -15 -20 -45l-114 -382q-36 -117 -65 -148.5t-70 -31.5q-48 0 -80 38t-32 91q0 37 19.5 59t46.5 22q24 0 42 -20t18 -53q0 -21 -7.5 -35t-18.5 -23q-1 -1 -24 -12q-15 -7 -15 -16q0 -11 13.5 -20t37.5 -9t39 11q24 17 41 66l-190 542h-44v22
h217v-22h-53l131 -377l71 256q5 17 9.5 40.5t4.5 33.5q0 24 -12.5 35.5t-34.5 11.5h-10v22h150v-22z" />
    <glyph glyph-name="Ocircumflex" unicode="&#xd4;" horiz-adv-x="617" 
d="M596 336q0 -158 -87 -218q-52 -36 -143 -36v-60h59v-22h-226v22h59v60q-93 0 -143 34q-87 59 -87 220q0 150 81 211q55 42 149 42v58h-59v22h226v-22h-59v-58q92 0 148 -42q82 -62 82 -211zM474 225v230q0 43 -16 72q-22 40 -73 40h-19v-463h24q48 0 68 37q16 29 16 84z
M258 104v463h-15q-46 0 -69.5 -29.5t-23.5 -82.5v-230q0 -59 18 -87q22 -34 72 -34h18z" />
    <glyph glyph-name="Ocircumflex" unicode="&#x424;" horiz-adv-x="617" 
d="M596 336q0 -158 -87 -218q-52 -36 -143 -36v-60h59v-22h-226v22h59v60q-93 0 -143 34q-87 59 -87 220q0 150 81 211q55 42 149 42v58h-59v22h226v-22h-59v-58q92 0 148 -42q82 -62 82 -211zM474 225v230q0 43 -16 72q-22 40 -73 40h-19v-463h24q48 0 68 37q16 29 16 84z
M258 104v463h-15q-46 0 -69.5 -29.5t-23.5 -82.5v-230q0 -59 18 -87q22 -34 72 -34h18z" />
    <glyph glyph-name="Otilde" unicode="&#xd5;" horiz-adv-x="491" 
d="M497 0h-208v22h42l-118 254l-62 -129q-10 -20 -14 -30q-8 -20 -8 -30q0 -36 11 -50.5t49 -14.5v-22h-181v22q30 3 51.5 20.5t55.5 87.5l85 173l-153 330h-32v22h208v-22h-52l107 -232l51 106q7 14 14 35.5t7 32.5q0 26 -12.5 42t-37.5 16v22h171v-22q-35 0 -58 -25
t-55 -93l-66 -143l159 -350h46v-22z" />
    <glyph glyph-name="Otilde" unicode="&#x425;" horiz-adv-x="491" 
d="M497 0h-208v22h42l-118 254l-62 -129q-10 -20 -14 -30q-8 -20 -8 -30q0 -36 11 -50.5t49 -14.5v-22h-181v22q30 3 51.5 20.5t55.5 87.5l85 173l-153 330h-32v22h208v-22h-52l107 -232l51 106q7 14 14 35.5t7 32.5q0 26 -12.5 42t-37.5 16v22h171v-22q-35 0 -58 -25
t-55 -93l-66 -143l159 -350h46v-22z" />
    <glyph glyph-name="Odieresis" unicode="&#xd6;" horiz-adv-x="555" 
d="M554 -190h-25q-26 110 -68 155q-32 35 -80 35h-353v22h59v611h-59v22h216v-22h-49v-611h164v611h-49v22h216v-22h-59v-611h78z" />
    <glyph glyph-name="Odieresis" unicode="&#x426;" horiz-adv-x="555" 
d="M554 -190h-25q-26 110 -68 155q-32 35 -80 35h-353v22h59v611h-59v22h216v-22h-49v-611h164v611h-49v22h216v-22h-59v-611h78z" />
    <glyph glyph-name="multiply" unicode="&#xd7;" horiz-adv-x="494" 
d="M473 0h-225v22h59v274q-27 -20 -55 -32q-38 -16 -77 -16q-56 0 -83 30q-34 37 -34 139v216h-58v22h215v-22h-49v-229q0 -66 7 -86q12 -34 50 -34q15 0 40.5 11.5t43.5 22.5v315h-49v22h215v-22h-58v-611h58v-22z" />
    <glyph glyph-name="multiply" unicode="&#x427;" horiz-adv-x="494" 
d="M473 0h-225v22h59v274q-27 -20 -55 -32q-38 -16 -77 -16q-56 0 -83 30q-34 37 -34 139v216h-58v22h215v-22h-49v-229q0 -66 7 -86q12 -34 50 -34q15 0 40.5 11.5t43.5 22.5v315h-49v22h215v-22h-58v-611h58v-22z" />
    <glyph glyph-name="Oslash" unicode="&#xd8;" horiz-adv-x="783" 
d="M762 0h-734v22h59v611h-59v22h216v-22h-49v-611h146v611h-49v22h206v-22h-49v-611h146v611h-49v22h216v-22h-59v-611h59v-22z" />
    <glyph glyph-name="Oslash" unicode="&#x428;" horiz-adv-x="783" 
d="M762 0h-734v22h59v611h-59v22h216v-22h-49v-611h146v611h-49v22h206v-22h-49v-611h146v611h-49v22h216v-22h-59v-611h59v-22z" />
    <glyph glyph-name="Ugrave" unicode="&#xd9;" horiz-adv-x="791" 
d="M790 -190h-25q-27 115 -71 159q-31 31 -77 31h-589v22h59v611h-59v22h216v-22h-49v-611h146v611h-49v22h206v-22h-49v-611h146v611h-49v22h216v-22h-59v-611h78z" />
    <glyph glyph-name="Ugrave" unicode="&#x429;" horiz-adv-x="791" 
d="M790 -190h-25q-27 115 -71 159q-31 31 -77 31h-589v22h59v611h-59v22h216v-22h-49v-611h146v611h-49v22h206v-22h-49v-611h146v611h-49v22h216v-22h-59v-611h78z" />
    <glyph glyph-name="Uacute" unicode="&#xda;" horiz-adv-x="515" 
d="M508 184q0 -109 -67 -153q-47 -31 -126 -31h-208v22h59v611q-14 2 -20 2q-60 0 -94 -72q-27 -58 -27 -131h-25l5 223h328v-22h-59v-259h29q101 0 153 -53t52 -137zM386 148v78q0 77 -24 105q-18 21 -59 21h-29v-330h25q47 0 67 27t20 99z" />
    <glyph glyph-name="Uacute" unicode="&#x42a;" horiz-adv-x="515" 
d="M508 184q0 -109 -67 -153q-47 -31 -126 -31h-208v22h59v611q-14 2 -20 2q-60 0 -94 -72q-27 -58 -27 -131h-25l5 223h328v-22h-59v-259h29q101 0 153 -53t52 -137zM386 148v78q0 77 -24 105q-18 21 -59 21h-29v-330h25q47 0 67 27t20 99z" />
    <glyph glyph-name="Ucircumflex" unicode="&#xdb;" horiz-adv-x="684" 
d="M663 0h-226v22h59v611h-59v22h226v-22h-59v-611h59v-22zM430 184q0 -109 -67 -153q-47 -31 -127 -31h-208v22h59v611h-59v22h226v-22h-59v-259h29q94 0 148 -46q58 -50 58 -144zM308 148v78q0 65 -16 93q-19 33 -68 33h-29v-330h25q46 0 67 27t21 99z" />
    <glyph glyph-name="Ucircumflex" unicode="&#x42b;" horiz-adv-x="684" 
d="M663 0h-226v22h59v611h-59v22h226v-22h-59v-611h59v-22zM430 184q0 -109 -67 -153q-47 -31 -127 -31h-208v22h59v611h-59v22h226v-22h-59v-259h29q94 0 148 -46q58 -50 58 -144zM308 148v78q0 65 -16 93q-19 33 -68 33h-29v-330h25q46 0 67 27t21 99z" />
    <glyph glyph-name="Udieresis" unicode="&#xdc;" horiz-adv-x="436" 
d="M429 184q0 -109 -67 -153q-47 -31 -126 -31h-208v22h59v611h-59v22h225v-22h-58v-259h29q93 0 149 -50t56 -140zM307 148v78q0 66 -15 93q-18 33 -68 33h-29v-330h25q47 0 67 27t20 99z" />
    <glyph glyph-name="Udieresis" unicode="&#x42c;" horiz-adv-x="436" 
d="M429 184q0 -109 -67 -153q-47 -31 -126 -31h-208v22h59v611h-59v22h225v-22h-58v-259h29q93 0 149 -50t56 -140zM307 148v78q0 66 -15 93q-18 33 -68 33h-29v-330h25q47 0 67 27t20 99z" />
    <glyph glyph-name="Yacute" unicode="&#xdd;" horiz-adv-x="409" 
d="M388 334q0 -136 -52 -232q-60 -110 -163 -110q-66 0 -112.5 41.5t-46.5 104.5q0 40 18.5 60.5t44.5 20.5q23 0 40 -21t17 -47q0 -11 -3.5 -20t-8.5 -17q-11 -13 -16 -21q-10 -15 -10 -27q0 -20 15 -34q19 -18 55 -18q62 0 85 84q15 55 15 168v69h-178v22h178v96
q0 78 -10 116q-19 72 -73 72q-52 0 -90 -48q-43 -55 -43 -143h-19l9 205h16q2 -11 9.5 -15.5t15.5 -4.5q9 0 21 5t24 10.5t27 9t36 3.5q88 0 143.5 -94t55.5 -235z" />
    <glyph glyph-name="Yacute" unicode="&#x42d;" horiz-adv-x="409" 
d="M388 334q0 -136 -52 -232q-60 -110 -163 -110q-66 0 -112.5 41.5t-46.5 104.5q0 40 18.5 60.5t44.5 20.5q23 0 40 -21t17 -47q0 -11 -3.5 -20t-8.5 -17q-11 -13 -16 -21q-10 -15 -10 -27q0 -20 15 -34q19 -18 55 -18q62 0 85 84q15 55 15 168v69h-178v22h178v96
q0 78 -10 116q-19 72 -73 72q-52 0 -90 -48q-43 -55 -43 -143h-19l9 205h16q2 -11 9.5 -15.5t15.5 -4.5q9 0 21 5t24 10.5t27 9t36 3.5q88 0 143.5 -94t55.5 -235z" />
    <glyph glyph-name="Thorn" unicode="&#xde;" horiz-adv-x="768" 
d="M736 327q0 -141 -68 -238t-163 -97q-99 0 -166 107q-63 101 -63 236h-81v-313h59v-22h-226v22h59v611h-59v22h226v-22h-59v-276h81q0 120 68 213t161 93q89 0 157 -90q74 -98 74 -246zM614 219v214q0 94 -24 147q-28 61 -85 61q-64 0 -91 -85q-16 -51 -16 -123v-214
q0 -109 32 -161q27 -44 75 -44q62 0 89 66q20 49 20 139z" />
    <glyph glyph-name="Thorn" unicode="&#x42e;" horiz-adv-x="768" 
d="M736 327q0 -141 -68 -238t-163 -97q-99 0 -166 107q-63 101 -63 236h-81v-313h59v-22h-226v22h59v611h-59v22h226v-22h-59v-276h81q0 120 68 213t161 93q89 0 157 -90q74 -98 74 -246zM614 219v214q0 94 -24 147q-28 61 -85 61q-64 0 -91 -85q-16 -51 -16 -123v-214
q0 -109 32 -161q27 -44 75 -44q62 0 89 66q20 49 20 139z" />
    <glyph glyph-name="germandbls" unicode="&#xdf;" horiz-adv-x="508" 
d="M487 0h-226v22h59v309h-61q-55 0 -71 -47q-11 -32 -11 -121q0 -101 -23 -136t-79 -35q-22 0 -40.5 6t-40.5 23l10 17q18 -9 22 -9q30 0 36 70q3 56 7 113q9 52 33 79q32 35 104 47v8q-70 9 -107 41q-45 40 -45 116q0 91 64 127q45 25 128 25h241v-22h-59v-611h59v-22z
M320 353v280h-51q-61 0 -82 -44q-11 -23 -11 -65v-58q0 -73 33 -98q20 -15 63 -15h48z" />
    <glyph glyph-name="germandbls" unicode="&#x42f;" horiz-adv-x="508" 
d="M487 0h-226v22h59v309h-61q-55 0 -71 -47q-11 -32 -11 -121q0 -101 -23 -136t-79 -35q-22 0 -40.5 6t-40.5 23l10 17q18 -9 22 -9q30 0 36 70q3 56 7 113q9 52 33 79q32 35 104 47v8q-70 9 -107 41q-45 40 -45 116q0 91 64 127q45 25 128 25h241v-22h-59v-611h59v-22z
M320 353v280h-51q-61 0 -82 -44q-11 -23 -11 -65v-58q0 -73 33 -98q20 -15 63 -15h48z" />
    <glyph glyph-name="agrave" unicode="&#xe0;" horiz-adv-x="361" 
d="M361 45q-18 -29 -38.5 -41t-46.5 -12t-43 20.5t-20 46.5q-16 -26 -41 -44q-32 -23 -66 -23q-45 0 -70 32.5t-25 81.5q0 79 54 113q48 30 146 30v113q0 35 -15 49t-41 14q-23 0 -36 -7t-13 -20q0 -10 8 -19.5t12 -15t7 -11.5q7 -13 7 -29q0 -26 -15 -44t-37 -18
q-28 0 -42 21.5t-14 46.5q0 44 34 76q42 40 120 40q55 0 85 -16q38 -21 38 -68v-274q0 -26 2 -38.5t12 -12.5q7 0 12.5 4t14.5 15zM211 84v145q-59 -5 -79 -41q-13 -23 -13 -73q0 -37 7 -57t29 -20q15 0 37 23q9 10 19 23z" />
    <glyph glyph-name="agrave" unicode="&#x430;" horiz-adv-x="361" 
d="M361 45q-18 -29 -38.5 -41t-46.5 -12t-43 20.5t-20 46.5q-16 -26 -41 -44q-32 -23 -66 -23q-45 0 -70 32.5t-25 81.5q0 79 54 113q48 30 146 30v113q0 35 -15 49t-41 14q-23 0 -36 -7t-13 -20q0 -10 8 -19.5t12 -15t7 -11.5q7 -13 7 -29q0 -26 -15 -44t-37 -18
q-28 0 -42 21.5t-14 46.5q0 44 34 76q42 40 120 40q55 0 85 -16q38 -21 38 -68v-274q0 -26 2 -38.5t12 -12.5q7 0 12.5 4t14.5 15zM211 84v145q-59 -5 -79 -41q-13 -23 -13 -73q0 -37 7 -57t29 -20q15 0 37 23q9 10 19 23z" />
    <glyph glyph-name="aacute" unicode="&#xe1;" horiz-adv-x="348" 
d="M326 218q0 -100 -51 -166q-47 -60 -108 -60q-74 0 -116.5 76.5t-42.5 207.5q0 157 34 243q38 95 116 133q32 15 88.5 26t56.5 43h17q0 -83 -59 -127q-23 -17 -111 -50q-54 -21 -82 -61q-42 -60 -42 -174h8q13 63 55 102q37 34 78 34q59 0 106 -58q53 -66 53 -169zM218 98
v241q0 41 -13.5 63.5t-37.5 22.5t-37.5 -22.5t-13.5 -63.5v-241q0 -47 18 -69q14 -17 33 -17q20 0 33 16q18 22 18 70z" />
    <glyph glyph-name="aacute" unicode="&#x431;" horiz-adv-x="348" 
d="M326 218q0 -100 -51 -166q-47 -60 -108 -60q-74 0 -116.5 76.5t-42.5 207.5q0 157 34 243q38 95 116 133q32 15 88.5 26t56.5 43h17q0 -83 -59 -127q-23 -17 -111 -50q-54 -21 -82 -61q-42 -60 -42 -174h8q13 63 55 102q37 34 78 34q59 0 106 -58q53 -66 53 -169zM218 98
v241q0 41 -13.5 63.5t-37.5 22.5t-37.5 -22.5t-13.5 -63.5v-241q0 -47 18 -69q14 -17 33 -17q20 0 33 16q18 22 18 70z" />
    <glyph glyph-name="acircumflex" unicode="&#xe2;" horiz-adv-x="364" 
d="M336 123q0 -53 -25 -83q-33 -40 -108 -40h-197v20h34v397h-34v20h148q102 0 135 -25q29 -22 29 -70q0 -42 -24.5 -64.5t-77.5 -36.5q56 -17 83 -39q37 -30 37 -79zM219 321v30q0 45 -20 59q-10 7 -33 7h-28v-167h29q24 0 36 12q16 17 16 59zM228 102v38q0 39 -7 57
q-13 33 -47 33h-36v-210h47q17 0 28 14q15 20 15 68z" />
    <glyph glyph-name="acircumflex" unicode="&#x432;" horiz-adv-x="364" 
d="M336 123q0 -53 -25 -83q-33 -40 -108 -40h-197v20h34v397h-34v20h148q102 0 135 -25q29 -22 29 -70q0 -42 -24.5 -64.5t-77.5 -36.5q56 -17 83 -39q37 -30 37 -79zM219 321v30q0 45 -20 59q-10 7 -33 7h-28v-167h29q24 0 36 12q16 17 16 59zM228 102v38q0 39 -7 57
q-13 33 -47 33h-36v-210h47q17 0 28 14q15 20 15 68z" />
    <glyph glyph-name="atilde" unicode="&#xe3;" horiz-adv-x="287" 
d="M279 267h-22q-9 73 -33 108q-29 42 -85 42v-397h40v-20h-173v20h35v397h-35v20h268z" />
    <glyph glyph-name="atilde" unicode="&#x433;" horiz-adv-x="287" 
d="M279 267h-22q-9 73 -33 108q-29 42 -85 42v-397h40v-20h-173v20h35v397h-35v20h268z" />
    <glyph glyph-name="adieresis" unicode="&#xe4;" horiz-adv-x="352" 
d="M344 -158h-20q-5 60 -25 99q-30 59 -83 59h-96q-36 0 -59 -24q-37 -38 -49 -134h-20v178q37 -3 57 23q15 19 20 49t9 114t4 154q0 35 -9 46t-28 11h-10v20h291v-20h-35v-397h53v-178zM193 20v397h-60q-14 0 -20 -8q-10 -13 -10 -49v-80q0 -134 -6.5 -179t-36.5 -81h133z
" />
    <glyph glyph-name="adieresis" unicode="&#x434;" horiz-adv-x="352" 
d="M344 -158h-20q-5 60 -25 99q-30 59 -83 59h-96q-36 0 -59 -24q-37 -38 -49 -134h-20v178q37 -3 57 23q15 19 20 49t9 114t4 154q0 35 -9 46t-28 11h-10v20h291v-20h-35v-397h53v-178zM193 20v397h-60q-14 0 -20 -8q-10 -13 -10 -49v-80q0 -134 -6.5 -179t-36.5 -81h133z
" />
    <glyph glyph-name="aring" unicode="&#xe5;" horiz-adv-x="329" 
d="M307 235h-191v-91q0 -60 10 -89q15 -43 55 -43q36 0 68 36q23 25 38 61l13 -7q-22 -51 -48 -77q-32 -33 -74 -33q-69 0 -119.5 66t-50.5 161q0 90 45 158t103 68q56 0 100 -51q51 -59 51 -159zM209 255v46q0 74 -12 99t-36 25q-26 0 -35.5 -23t-9.5 -61v-86h93z" />
    <glyph glyph-name="aring" unicode="&#x435;" horiz-adv-x="329" 
d="M307 235h-191v-91q0 -60 10 -89q15 -43 55 -43q36 0 68 36q23 25 38 61l13 -7q-22 -51 -48 -77q-32 -33 -74 -33q-69 0 -119.5 66t-50.5 161q0 90 45 158t103 68q56 0 100 -51q51 -59 51 -159zM209 255v46q0 74 -12 99t-36 25q-26 0 -35.5 -23t-9.5 -61v-86h93z" />
    <glyph glyph-name="ae" unicode="&#xe6;" horiz-adv-x="564" 
d="M553 42q-10 -21 -28.5 -35.5t-39.5 -14.5q-37 0 -53 30q-12 22 -23 86t-12 68q-13 45 -56 45h-17v-201h34v-20h-166v20h34v201h-21q-40 0 -53 -50q-8 -41 -12 -65q-8 -51 -14 -67q-16 -47 -61 -47q-22 0 -39.5 13.5t-28.5 36.5l10 8q6 -9 12 -14.5t13 -5.5q9 0 12.5 10
t3.5 20q0 85 21.5 119.5t88.5 58.5q-13 8 -19.5 29t-13.5 82q-2 12 -3 24q-4 21 -17 21q-12 0 -14 -43t-35 -43q-21 0 -34.5 20.5t-13.5 50.5q0 26 18 46t49 20q28 0 43.5 -20t24 -85t21.5 -85q9 -14 36 -14h26v176h-34v20h166v-20h-34v-176h25q27 0 36 14q14 21 24 101
q7 50 22 69.5t44 19.5q31 0 49 -19t18 -47q0 -30 -13 -50.5t-35 -20.5q-33 0 -35 43t-14 43q-10 0 -14 -11.5t-6 -33.5q-7 -63 -13 -82.5t-20 -28.5q67 -24 88.5 -58.5t21.5 -119.5q0 -13 3 -21.5t13 -8.5q6 0 13 6.5t12 13.5z" />
    <glyph glyph-name="ae" unicode="&#x436;" horiz-adv-x="564" 
d="M553 42q-10 -21 -28.5 -35.5t-39.5 -14.5q-37 0 -53 30q-12 22 -23 86t-12 68q-13 45 -56 45h-17v-201h34v-20h-166v20h34v201h-21q-40 0 -53 -50q-8 -41 -12 -65q-8 -51 -14 -67q-16 -47 -61 -47q-22 0 -39.5 13.5t-28.5 36.5l10 8q6 -9 12 -14.5t13 -5.5q9 0 12.5 10
t3.5 20q0 85 21.5 119.5t88.5 58.5q-13 8 -19.5 29t-13.5 82q-2 12 -3 24q-4 21 -17 21q-12 0 -14 -43t-35 -43q-21 0 -34.5 20.5t-13.5 50.5q0 26 18 46t49 20q28 0 43.5 -20t24 -85t21.5 -85q9 -14 36 -14h26v176h-34v20h166v-20h-34v-176h25q27 0 36 14q14 21 24 101
q7 50 22 69.5t44 19.5q31 0 49 -19t18 -47q0 -30 -13 -50.5t-35 -20.5q-33 0 -35 43t-14 43q-10 0 -14 -11.5t-6 -33.5q-7 -63 -13 -82.5t-20 -28.5q67 -24 88.5 -58.5t21.5 -119.5q0 -13 3 -21.5t13 -8.5q6 0 13 6.5t12 13.5z" />
    <glyph glyph-name="ccedilla" unicode="&#xe7;" horiz-adv-x="293" 
d="M269 122q0 -59 -41 -94.5t-104 -35.5q-50 0 -85 24q-43 30 -43 85q0 36 15.5 55.5t36.5 19.5q22 0 37.5 -15.5t15.5 -43.5q0 -16 -6 -28t-14.5 -19t-13 -16.5t-4.5 -17.5q0 -11 16 -17.5t32 -6.5t30 12q20 18 20 55v75q0 49 -21 66q-14 11 -45 11h-10v20h18q35 0 46 15
t11 45v32q0 42 -5 57q-8 25 -35 25q-34 0 -59 -57q-20 -45 -25 -93h-15l2 164h16q2 -17 17 -17q13 0 24 7q24 16 66 16q51 0 83 -28t32 -70q0 -44 -30 -69q-25 -21 -78 -35v-5q45 -7 76 -33q40 -33 40 -83z" />
    <glyph glyph-name="ccedilla" unicode="&#x437;" horiz-adv-x="293" 
d="M269 122q0 -59 -41 -94.5t-104 -35.5q-50 0 -85 24q-43 30 -43 85q0 36 15.5 55.5t36.5 19.5q22 0 37.5 -15.5t15.5 -43.5q0 -16 -6 -28t-14.5 -19t-13 -16.5t-4.5 -17.5q0 -11 16 -17.5t32 -6.5t30 12q20 18 20 55v75q0 49 -21 66q-14 11 -45 11h-10v20h18q35 0 46 15
t11 45v32q0 42 -5 57q-8 25 -35 25q-34 0 -59 -57q-20 -45 -25 -93h-15l2 164h16q2 -17 17 -17q13 0 24 7q24 16 66 16q51 0 83 -28t32 -70q0 -44 -30 -69q-25 -21 -78 -35v-5q45 -7 76 -33q40 -33 40 -83z" />
    <glyph glyph-name="egrave" unicode="&#xe8;" horiz-adv-x="389" 
d="M369 0h-162v20h29v327l-97 -314v-13h29v-20h-162v20h35v397h-35v20h162v-20h-29v-319l97 312v7h-29v20h162v-20h-35v-397h35v-20z" />
    <glyph glyph-name="egrave" unicode="&#x438;" horiz-adv-x="389" 
d="M369 0h-162v20h29v327l-97 -314v-13h29v-20h-162v20h35v397h-35v20h162v-20h-29v-319l97 312v7h-29v20h162v-20h-35v-397h35v-20z" />
    <glyph glyph-name="eacute" unicode="&#xe9;" horiz-adv-x="389" 
d="M316 623q0 -45 -30 -77q-36 -39 -99 -39q-62 0 -97 38q-31 33 -31 78q0 31 14.5 45t34.5 14q24 0 37 -21q10 -16 10 -36q0 -7 -5.5 -19.5t-17.5 -23.5q-8 -7 -8 -17q0 -17 18.5 -28t45.5 -11q25 0 44 11t19 28q0 9 -9 16.5t-15.5 20.5t-6.5 23q0 18 11.5 37.5t35.5 19.5
q18 0 33.5 -14.5t15.5 -44.5zM369 0h-162v20h29v327l-97 -314v-13h29v-20h-162v20h35v397h-35v20h162v-20h-29v-319l97 312v7h-29v20h162v-20h-35v-397h35v-20z" />
    <glyph glyph-name="eacute" unicode="&#x439;" horiz-adv-x="389" 
d="M316 623q0 -45 -30 -77q-36 -39 -99 -39q-62 0 -97 38q-31 33 -31 78q0 31 14.5 45t34.5 14q24 0 37 -21q10 -16 10 -36q0 -7 -5.5 -19.5t-17.5 -23.5q-8 -7 -8 -17q0 -17 18.5 -28t45.5 -11q25 0 44 11t19 28q0 9 -9 16.5t-15.5 20.5t-6.5 23q0 18 11.5 37.5t35.5 19.5
q18 0 33.5 -14.5t15.5 -44.5zM369 0h-162v20h29v327l-97 -314v-13h29v-20h-162v20h35v397h-35v20h162v-20h-29v-319l97 312v7h-29v20h162v-20h-35v-397h35v-20z" />
    <glyph glyph-name="ecircumflex" unicode="&#xea;" horiz-adv-x="378" 
d="M367 42q-10 -22 -29 -36t-44 -14q-43 0 -58 32q-8 16 -19 85t-13 75q-14 36 -54 36h-12v-200h34v-20h-166v20h34v397h-34v20h166v-20h-34v-177h19q33 0 44.5 19t21.5 97q7 50 22 69.5t44 19.5q31 0 49 -19t18 -47q0 -30 -13 -50.5t-35 -20.5q-33 0 -35 43t-14 43
q-10 0 -14 -11.5t-6 -33.5q-6 -61 -13 -82.5t-23 -31.5l1 -3q45 0 72 -25t34 -78q2 -32 5.5 -65.5t18.5 -33.5q6 0 12 5t11 16z" />
    <glyph glyph-name="ecircumflex" unicode="&#x43a;" horiz-adv-x="378" 
d="M367 42q-10 -22 -29 -36t-44 -14q-43 0 -58 32q-8 16 -19 85t-13 75q-14 36 -54 36h-12v-200h34v-20h-166v20h34v397h-34v20h166v-20h-34v-177h19q33 0 44.5 19t21.5 97q7 50 22 69.5t44 19.5q31 0 49 -19t18 -47q0 -30 -13 -50.5t-35 -20.5q-33 0 -35 43t-14 43
q-10 0 -14 -11.5t-6 -33.5q-6 -61 -13 -82.5t-23 -31.5l1 -3q45 0 72 -25t34 -78q2 -32 5.5 -65.5t18.5 -33.5q6 0 12 5t11 16z" />
    <glyph glyph-name="edieresis" unicode="&#xeb;" horiz-adv-x="376" 
d="M356 0h-166v20h34v397h-55q-20 0 -23.5 -21.5t-3.5 -40.5l-3 -165v-35q0 -78 -11 -112q-17 -51 -65 -51q-32 0 -53 17.5t-21 50.5t14.5 51t35.5 18q27 0 27 -17q0 -7 -6 -24t-6 -26q0 -11 9 -17t33 -6q14 0 18.5 32t4.5 77v37l3 170q0 32 -6 44q-9 18 -33 18h-13v20h286
v-20h-34v-397h34v-20z" />
    <glyph glyph-name="edieresis" unicode="&#x43b;" horiz-adv-x="376" 
d="M356 0h-166v20h34v397h-55q-20 0 -23.5 -21.5t-3.5 -40.5l-3 -165v-35q0 -78 -11 -112q-17 -51 -65 -51q-32 0 -53 17.5t-21 50.5t14.5 51t35.5 18q27 0 27 -17q0 -7 -6 -24t-6 -26q0 -11 9 -17t33 -6q14 0 18.5 32t4.5 77v37l3 170q0 32 -6 44q-9 18 -33 18h-13v20h286
v-20h-34v-397h34v-20z" />
    <glyph glyph-name="igrave" unicode="&#xec;" horiz-adv-x="454" 
d="M434 0h-167v20h35v355l-105 -375h-11l-112 378v-310q0 -28 9.5 -38t27.5 -10h9v-20h-114v20h9q20 0 29.5 9.5t9.5 38.5v305q0 18 -6 28q-9 16 -33 16h-7v20h135l80 -273l77 273h134v-20h-34v-397h34v-20z" />
    <glyph glyph-name="igrave" unicode="&#x43c;" horiz-adv-x="454" 
d="M434 0h-167v20h35v355l-105 -375h-11l-112 378v-310q0 -28 9.5 -38t27.5 -10h9v-20h-114v20h9q20 0 29.5 9.5t9.5 38.5v305q0 18 -6 28q-9 16 -33 16h-7v20h135l80 -273l77 273h134v-20h-34v-397h34v-20z" />
    <glyph glyph-name="iacute" unicode="&#xed;" horiz-adv-x="387" 
d="M367 0h-161v20h29v199h-97v-199h29v-20h-161v20h34v397h-34v20h161v-20h-29v-178h97v178h-29v20h161v-20h-34v-397h34v-20z" />
    <glyph glyph-name="iacute" unicode="&#x43d;" horiz-adv-x="387" 
d="M367 0h-161v20h29v199h-97v-199h29v-20h-161v20h34v397h-34v20h161v-20h-29v-178h97v178h-29v20h161v-20h-34v-397h34v-20z" />
    <glyph glyph-name="icircumflex" unicode="&#xee;" horiz-adv-x="350" 
d="M328 218q0 -99 -48.5 -162.5t-111.5 -63.5q-61 0 -109 62q-51 66 -51 164q0 85 44 153q48 74 116 74q69 0 116 -73q44 -68 44 -154zM220 126v184q0 57 -7 80q-11 35 -45 35t-45 -35q-7 -22 -7 -80v-184q0 -70 12.5 -92t39.5 -22q34 0 45 36q7 22 7 78z" />
    <glyph glyph-name="icircumflex" unicode="&#x43e;" horiz-adv-x="350" 
d="M328 218q0 -99 -48.5 -162.5t-111.5 -63.5q-61 0 -109 62q-51 66 -51 164q0 85 44 153q48 74 116 74q69 0 116 -73q44 -68 44 -154zM220 126v184q0 57 -7 80q-11 35 -45 35t-45 -35q-7 -22 -7 -80v-184q0 -70 12.5 -92t39.5 -22q34 0 45 36q7 22 7 78z" />
    <glyph glyph-name="idieresis" unicode="&#xef;" horiz-adv-x="382" 
d="M362 0h-161v20h29v397h-92v-397h29v-20h-161v20h34v397h-34v20h356v-20h-34v-397h34v-20z" />
    <glyph glyph-name="idieresis" unicode="&#x43f;" horiz-adv-x="382" 
d="M362 0h-161v20h29v397h-92v-397h29v-20h-161v20h34v397h-34v20h356v-20h-34v-397h34v-20z" />
    <glyph glyph-name="eth" unicode="&#xf0;" 
d="M363 217q0 -106 -51 -169q-45 -56 -106 -56q-22 0 -42 17t-28 44v-242h34v-20h-166v20h34v606h-35v20h93q9 0 15 1t25 7v-70q6 28 25 46q25 24 64 24q70 0 108 -81q30 -64 30 -147zM255 156v109q0 65 -8 101q-12 55 -45 55q-41 0 -56 -77q-10 -51 -10 -142v-39
q0 -83 22 -117q16 -24 43 -24q23 0 38.5 31.5t15.5 102.5z" />
    <glyph glyph-name="eth" unicode="&#x440;" 
d="M363 217q0 -106 -51 -169q-45 -56 -106 -56q-22 0 -42 17t-28 44v-242h34v-20h-166v20h34v606h-35v20h93q9 0 15 1t25 7v-70q6 28 25 46q25 24 64 24q70 0 108 -81q30 -64 30 -147zM255 156v109q0 65 -8 101q-12 55 -45 55q-41 0 -56 -77q-10 -51 -10 -142v-39
q0 -83 22 -117q16 -24 43 -24q23 0 38.5 31.5t15.5 102.5z" />
    <glyph glyph-name="ntilde" unicode="&#xf1;" horiz-adv-x="321" 
d="M299 127q-21 -81 -60 -113q-27 -22 -66 -22q-74 0 -119.5 65.5t-45.5 152.5q0 108 56 176q49 59 110 59q41 0 77 -32q41 -37 41 -94q0 -39 -19 -60q-15 -17 -37 -17q-24 0 -38 22.5t-14 52.5q0 17 11 31q8 10 14.5 19t6.5 17q0 41 -40 41q-36 0 -48 -29t-12 -85v-157
q0 -64 10 -94q16 -48 60 -48q33 0 60.5 35.5t38.5 84.5z" />
    <glyph glyph-name="ntilde" unicode="&#x441;" horiz-adv-x="321" 
d="M299 127q-21 -81 -60 -113q-27 -22 -66 -22q-74 0 -119.5 65.5t-45.5 152.5q0 108 56 176q49 59 110 59q41 0 77 -32q41 -37 41 -94q0 -39 -19 -60q-15 -17 -37 -17q-24 0 -38 22.5t-14 52.5q0 17 11 31q8 10 14.5 19t6.5 17q0 41 -40 41q-36 0 -48 -29t-12 -85v-157
q0 -64 10 -94q16 -48 60 -48q33 0 60.5 35.5t38.5 84.5z" />
    <glyph glyph-name="ograve" unicode="&#xf2;" horiz-adv-x="322" 
d="M314 259h-20q0 60 -26 111t-65 47v-397h34v-20h-166v20h34v397q-43 0 -69 -55q-22 -46 -22 -103h-20l6 178h308z" />
    <glyph glyph-name="ograve" unicode="&#x442;" horiz-adv-x="322" 
d="M314 259h-20q0 60 -26 111t-65 47v-397h34v-20h-166v20h34v397q-43 0 -69 -55q-22 -46 -22 -103h-20l6 178h308z" />
    <glyph glyph-name="oacute" unicode="&#xf3;" horiz-adv-x="304" 
d="M340 417h-6q-18 0 -33.5 -23t-25.5 -61l-88 -345q-28 -110 -56 -153t-72 -43q-38 0 -62.5 27.5t-24.5 70.5q0 35 19.5 54.5t42.5 19.5q19 0 33.5 -15t14.5 -44q0 -14 -6.5 -27.5t-9.5 -19.5q-7 -14 -7 -23q0 -8 7 -13q2 -1 7 -4q17 0 33 19q24 29 46 100l-145 480h-27v20
h170v-20h-38l90 -294l53 208q2 9 3.5 22.5t1.5 27.5q0 15 -12.5 25.5t-31.5 10.5h-10v20h134v-20z" />
    <glyph glyph-name="oacute" unicode="&#x443;" horiz-adv-x="304" 
d="M340 417h-6q-18 0 -33.5 -23t-25.5 -61l-88 -345q-28 -110 -56 -153t-72 -43q-38 0 -62.5 27.5t-24.5 70.5q0 35 19.5 54.5t42.5 19.5q19 0 33.5 -15t14.5 -44q0 -14 -6.5 -27.5t-9.5 -19.5q-7 -14 -7 -23q0 -8 7 -13q2 -1 7 -4q17 0 33 19q24 29 46 100l-145 480h-27v20
h170v-20h-38l90 -294l53 208q2 9 3.5 22.5t1.5 27.5q0 15 -12.5 25.5t-31.5 10.5h-10v20h134v-20z" />
    <glyph glyph-name="ocircumflex" unicode="&#xf4;" horiz-adv-x="548" 
d="M526 218q0 -78 -33 -145q-40 -81 -104 -81q-28 0 -45 7.5t-28 28.5v-229h34v-20h-166v20h34v229q-9 -15 -26.5 -25.5t-46.5 -10.5q-65 0 -104 80q-33 67 -33 146q0 96 41 161.5t102 65.5q25 0 41 -11.5t26 -29.5v220h-36v20h93q6 0 19.5 3t21.5 5v-248q21 41 67 41
q53 0 95 -56q48 -64 48 -171zM418 119v205q0 45 -12.5 69.5t-37.5 24.5q-21 0 -36.5 -27t-15.5 -72v-177q0 -53 7 -79q14 -51 50 -51q28 0 38 36q7 25 7 71zM218 142v177q0 45 -15.5 72t-36.5 27q-23 0 -36.5 -26t-13.5 -68v-205q0 -49 6 -70q11 -37 39 -37q36 0 49 50
q8 30 8 80z" />
    <glyph glyph-name="ocircumflex" unicode="&#x444;" horiz-adv-x="548" 
d="M526 218q0 -78 -33 -145q-40 -81 -104 -81q-28 0 -45 7.5t-28 28.5v-229h34v-20h-166v20h34v229q-9 -15 -26.5 -25.5t-46.5 -10.5q-65 0 -104 80q-33 67 -33 146q0 96 41 161.5t102 65.5q25 0 41 -11.5t26 -29.5v220h-36v20h93q6 0 19.5 3t21.5 5v-248q21 41 67 41
q53 0 95 -56q48 -64 48 -171zM418 119v205q0 45 -12.5 69.5t-37.5 24.5q-21 0 -36.5 -27t-15.5 -72v-177q0 -53 7 -79q14 -51 50 -51q28 0 38 36q7 25 7 71zM218 142v177q0 45 -15.5 72t-36.5 27q-23 0 -36.5 -26t-13.5 -68v-205q0 -49 6 -70q11 -37 39 -37q36 0 49 50
q8 30 8 80z" />
    <glyph glyph-name="otilde" unicode="&#xf5;" horiz-adv-x="365" 
d="M357 0h-185v20h39l-66 152l-56 -103q-7 -13 -7 -23q0 -12 10.5 -19t36.5 -7v-20h-135v20q21 0 38 9.5t30 33.5l72 128l-99 226h-30v20h172v-20h-33l63 -144l36 69q5 9 8.5 17.5t5 17t1.5 13.5q0 3 -3 12t-10 12t-19 3h-8v20h124v-20q-24 0 -41 -19q-6 -7 -21 -34
l-60 -112l102 -232h35v-20z" />
    <glyph glyph-name="otilde" unicode="&#x445;" horiz-adv-x="365" 
d="M357 0h-185v20h39l-66 152l-56 -103q-7 -13 -7 -23q0 -12 10.5 -19t36.5 -7v-20h-135v20q21 0 38 9.5t30 33.5l72 128l-99 226h-30v20h172v-20h-33l63 -144l36 69q5 9 8.5 17.5t5 17t1.5 13.5q0 3 -3 12t-10 12t-19 3h-8v20h124v-20q-24 0 -41 -19q-6 -7 -21 -34
l-60 -112l102 -232h35v-20z" />
    <glyph glyph-name="odieresis" unicode="&#xf6;" horiz-adv-x="384" 
d="M384 -162h-20q-11 106 -48 141q-22 21 -66 21h-244v20h35v397h-35v20h162v-20h-29v-397h93v397h-30v20h163v-20h-35v-397h50z" />
    <glyph glyph-name="odieresis" unicode="&#x446;" horiz-adv-x="384" 
d="M384 -162h-20q-11 106 -48 141q-22 21 -66 21h-244v20h35v397h-35v20h162v-20h-29v-397h93v397h-30v20h163v-20h-35v-397h50z" />
    <glyph glyph-name="divide" unicode="&#xf7;" horiz-adv-x="354" 
d="M334 0h-166v20h34v185q-21 -15 -51.5 -26.5t-53.5 -11.5q-38 0 -57.5 26.5t-19.5 60.5v163h-34v20h161v-20h-29v-177q0 -19 9.5 -26.5t21.5 -7.5q10 0 26 7.5t27 15.5v188h-29v20h161v-20h-34v-397h34v-20z" />
    <glyph glyph-name="divide" unicode="&#x447;" horiz-adv-x="354" 
d="M334 0h-166v20h34v185q-21 -15 -51.5 -26.5t-53.5 -11.5q-38 0 -57.5 26.5t-19.5 60.5v163h-34v20h161v-20h-29v-177q0 -19 9.5 -26.5t21.5 -7.5q10 0 26 7.5t27 15.5v188h-29v20h161v-20h-34v-397h34v-20z" />
    <glyph glyph-name="oslash" unicode="&#xf8;" horiz-adv-x="560" 
d="M540 0h-534v20h34v397h-34v20h162v-20h-30v-397h86v397h-29v20h156v-20h-29v-397h86v397h-30v20h162v-20h-34v-397h34v-20z" />
    <glyph glyph-name="oslash" unicode="&#x448;" horiz-adv-x="560" 
d="M540 0h-534v20h34v397h-34v20h162v-20h-30v-397h86v397h-29v20h156v-20h-29v-397h86v397h-30v20h162v-20h-34v-397h34v-20z" />
    <glyph glyph-name="ugrave" unicode="&#xf9;" horiz-adv-x="559" 
d="M559 -162h-20q-11 106 -48 141q-22 21 -66 21h-419v20h34v397h-34v20h161v-20h-29v-397h86v397h-29v20h156v-20h-29v-397h86v397h-29v20h161v-20h-34v-397h49z" />
    <glyph glyph-name="ugrave" unicode="&#x449;" horiz-adv-x="559" 
d="M559 -162h-20q-11 106 -48 141q-22 21 -66 21h-419v20h34v397h-34v20h161v-20h-29v-397h86v397h-29v20h156v-20h-29v-397h86v397h-29v20h161v-20h-34v-397h49z" />
    <glyph glyph-name="uacute" unicode="&#xfa;" horiz-adv-x="406" 
d="M392 138q0 -52 -26 -90q-33 -48 -96 -48h-194v20h34v397q-52 0 -76 -46q-17 -34 -26 -118h-22l4 184h252v-20h-34v-149h22q55 0 92 -17q70 -32 70 -113zM284 111v49q0 54 -18 74q-13 14 -38 14h-20v-228h20h11q23 0 32 13q13 19 13 78z" />
    <glyph glyph-name="uacute" unicode="&#x44a;" horiz-adv-x="406" 
d="M392 138q0 -52 -26 -90q-33 -48 -96 -48h-194v20h34v397q-52 0 -76 -46q-17 -34 -26 -118h-22l4 184h252v-20h-34v-149h22q55 0 92 -17q70 -32 70 -113zM284 111v49q0 54 -18 74q-13 14 -38 14h-20v-228h20h11q23 0 32 13q13 19 13 78z" />
    <glyph glyph-name="ucircumflex" unicode="&#xfb;" horiz-adv-x="503" 
d="M483 0h-161v20h34v397h-34v20h161v-20h-29v-397h29v-20zM321 140q0 -61 -33.5 -100.5t-88.5 -39.5h-193v20h34v397h-34v20h166v-20h-34v-149h22q92 0 132 -45q29 -33 29 -83zM213 111v49q0 54 -18 74q-13 14 -38 14h-19v-228h19h12q24 0 32 13q12 18 12 78z" />
    <glyph glyph-name="ucircumflex" unicode="&#x44b;" horiz-adv-x="503" 
d="M483 0h-161v20h34v397h-34v20h161v-20h-29v-397h29v-20zM321 140q0 -61 -33.5 -100.5t-88.5 -39.5h-193v20h34v397h-34v20h166v-20h-34v-149h22q92 0 132 -45q29 -33 29 -83zM213 111v49q0 54 -18 74q-13 14 -38 14h-19v-228h19h12q24 0 32 13q12 18 12 78z" />
    <glyph glyph-name="udieresis" unicode="&#xfc;" horiz-adv-x="336" 
d="M322 140q0 -62 -33 -101t-90 -39h-193v20h34v397h-34v20h166v-20h-34v-149h22q73 0 114 -28q48 -33 48 -100zM214 111v49q0 54 -18 74q-13 14 -38 14h-20v-228h19h11q24 0 33 13q13 19 13 78z" />
    <glyph glyph-name="udieresis" unicode="&#x44c;" horiz-adv-x="336" 
d="M322 140q0 -62 -33 -101t-90 -39h-193v20h34v397h-34v20h166v-20h-34v-149h22q73 0 114 -28q48 -33 48 -100zM214 111v49q0 54 -18 74q-13 14 -38 14h-20v-228h19h11q24 0 33 13q13 19 13 78z" />
    <glyph glyph-name="yacute" unicode="&#xfd;" horiz-adv-x="311" 
d="M289 222q0 -84 -40 -151q-47 -79 -124 -79q-48 0 -83 29q-39 32 -39 84q0 30 17 50.5t41 20.5q21 0 36 -17t15 -45q0 -17 -8 -31q-3 -5 -13 -15q-18 -18 -18 -28q0 -11 11.5 -19.5t28.5 -8.5q42 0 57 41q11 29 11 86v80h-102v20h102v51q0 70 -7 95q-11 40 -49 40
q-31 0 -51 -27q-23 -31 -36 -119h-19l5 159h16q0 -14 12 -14q36 0 40 10.5t47 10.5q66 0 108 -66.5t42 -156.5z" />
    <glyph glyph-name="yacute" unicode="&#x44d;" horiz-adv-x="311" 
d="M289 222q0 -84 -40 -151q-47 -79 -124 -79q-48 0 -83 29q-39 32 -39 84q0 30 17 50.5t41 20.5q21 0 36 -17t15 -45q0 -17 -8 -31q-3 -5 -13 -15q-18 -18 -18 -28q0 -11 11.5 -19.5t28.5 -8.5q42 0 57 41q11 29 11 86v80h-102v20h102v51q0 70 -7 95q-11 40 -49 40
q-31 0 -51 -27q-23 -31 -36 -119h-19l5 159h16q0 -14 12 -14q36 0 40 10.5t47 10.5q66 0 108 -66.5t42 -156.5z" />
    <glyph glyph-name="thorn" unicode="&#xfe;" horiz-adv-x="528" 
d="M506 218q0 -103 -53 -168q-47 -58 -107 -58q-61 0 -108 58q-52 64 -52 169h-47v-199h34v-20h-167v20h35v397h-35v20h167v-20h-34v-178h47q0 101 58 159q47 47 102 47q59 0 106 -57q54 -66 54 -170zM398 126v184q0 55 -8 80q-11 35 -44 35q-31 0 -41.5 -31t-10.5 -84v-184
q0 -68 13 -91t39 -23q31 0 43 36q9 27 9 78z" />
    <glyph glyph-name="thorn" unicode="&#x44e;" horiz-adv-x="528" 
d="M506 218q0 -103 -53 -168q-47 -58 -107 -58q-61 0 -108 58q-52 64 -52 169h-47v-199h34v-20h-167v20h35v397h-35v20h167v-20h-34v-178h47q0 101 58 159q47 47 102 47q59 0 106 -57q54 -66 54 -170zM398 126v184q0 55 -8 80q-11 35 -44 35q-31 0 -41.5 -31t-10.5 -84v-184
q0 -68 13 -91t39 -23q31 0 43 36q9 27 9 78z" />
    <glyph glyph-name="ydieresis" unicode="&#xff;" horiz-adv-x="378" 
d="M358 0h-166v20h34v195h-12q-44 0 -61 -61q-10 -44 -14 -63q-13 -59 -25 -77q-15 -22 -48 -22q-29 0 -50 18q-16 13 -27 36l10 8q8 -15 21 -15q15 0 27 71q7 42 12 52q13 27 36.5 40.5t72.5 21.5q-79 2 -111 35q-24 25 -24 77q0 63 41 84q34 17 131 17h153v-20h-34v-397
h34v-20zM226 235v182h-30q-24 0 -36 -12q-19 -19 -19 -74q0 -49 10 -67q16 -29 64 -29h11z" />
    <glyph glyph-name="ydieresis" unicode="&#x44f;" horiz-adv-x="378" 
d="M358 0h-166v20h34v195h-12q-44 0 -61 -61q-10 -44 -14 -63q-13 -59 -25 -77q-15 -22 -48 -22q-29 0 -50 18q-16 13 -27 36l10 8q8 -15 21 -15q15 0 27 71q7 42 12 52q13 27 36.5 40.5t72.5 21.5q-79 2 -111 35q-24 25 -24 77q0 63 41 84q34 17 131 17h153v-20h-34v-397
h34v-20zM226 235v182h-30q-24 0 -36 -12q-19 -19 -19 -74q0 -49 10 -67q16 -29 64 -29h11z" />
  </font>
</defs>
</svg>
